<?xml version="1.0" standalone="no"?>
<!DOCTYPE svg PUBLIC "-//W3C//DTD SVG 20010904//EN"
 "http://www.w3.org/TR/2001/REC-SVG-20010904/DTD/svg10.dtd">
<svg version="1.0" xmlns="http://www.w3.org/2000/svg"
 width="734.000000pt" height="734.000000pt" viewBox="0 0 734.000000 734.000000"
 preserveAspectRatio="xMidYMid meet">
<metadata>
Created by potrace 1.11, written by Peter Selinger 2001-2013
</metadata>
<g transform="translate(0.000000,734.000000) scale(0.100000,-0.100000)"
fill="#000000" stroke="none">
<path d="M3640 7332 c-35 -4 -100 -33 -129 -57 -36 -31 -70 -90 -77 -134 -6
-36 -4 -41 12 -42 24 -1 435 -1 452 0 37 3 -18 133 -76 181 -20 17 -44 30 -54
30 -9 0 -19 4 -22 9 -7 10 -68 18 -106 13z"/>
<path d="M2743 7219 c-127 -23 -217 -145 -197 -267 10 -61 8 -55 34 -145 12
-44 20 -80 18 -82 -2 -2 -41 -18 -88 -35 -294 -112 -590 -281 -839 -480 -55
-44 -104 -80 -107 -80 -4 0 -48 40 -98 88 -98 95 -133 112 -222 112 -84 -1
-170 -55 -211 -134 -24 -45 -23 -160 1 -208 10 -21 56 -76 102 -123 l84 -86
-63 -77 c-199 -244 -378 -550 -491 -838 l-47 -122 -110 29 c-60 16 -131 29
-157 29 -84 -1 -168 -56 -209 -139 -23 -46 -26 -142 -6 -189 39 -94 100 -134
261 -174 l94 -22 -6 -46 c-3 -25 -8 -56 -11 -70 -8 -41 -22 -176 -30 -285 -11
-149 -6 -419 10 -530 2 -16 7 -57 10 -90 4 -33 8 -62 10 -65 2 -3 6 -31 10
-62 l7 -55 -84 -22 c-175 -46 -228 -80 -268 -173 -52 -121 12 -272 135 -316
65 -23 95 -21 216 9 66 17 124 27 128 23 4 -5 20 -43 36 -84 15 -41 50 -122
77 -179 26 -57 48 -105 48 -106 0 -12 143 -255 201 -343 62 -92 152 -216 169
-232 3 -3 20 -23 38 -45 l32 -39 -89 -91 c-96 -97 -122 -144 -123 -216 0 -101
45 -174 137 -223 39 -21 62 -26 106 -25 80 3 127 29 224 125 53 52 91 82 98
77 7 -4 46 -35 87 -69 162 -133 403 -284 613 -384 134 -64 294 -130 314 -130
17 0 17 0 -13 -110 -34 -129 -38 -163 -20 -223 43 -147 209 -216 344 -142 82
45 104 82 147 250 20 77 30 96 48 90 12 -4 28 -7 162 -26 127 -18 218 -23 400
-24 239 0 389 12 560 44 27 5 52 8 53 6 2 -2 16 -50 32 -108 32 -121 49 -156
93 -198 90 -87 241 -85 328 2 91 91 96 170 23 411 -6 19 12 28 146 79 114 43
361 169 488 249 85 53 221 151 377 273 23 17 24 17 110 -67 48 -47 103 -93
123 -103 49 -24 164 -24 208 0 77 41 134 129 136 209 1 89 -17 124 -118 228
l-94 97 33 39 c209 250 393 559 517 866 27 68 54 124 59 126 5 2 53 -9 107
-23 53 -15 119 -27 145 -28 84 -1 161 45 207 122 36 61 38 164 5 227 -43 81
-94 111 -262 155 l-83 22 6 46 c3 25 8 57 11 71 35 192 47 637 21 815 -3 17
-8 53 -11 80 -4 28 -9 61 -11 75 -2 14 -7 45 -10 71 l-6 45 53 12 c147 34 190
52 240 102 94 95 94 247 0 339 -77 76 -150 86 -307 43 l-111 -30 -48 122 c-53
133 -140 311 -207 424 -24 40 -47 81 -53 90 -40 70 -170 252 -247 345 l-47 57
86 88 c96 98 124 147 124 224 1 164 -151 278 -310 232 -48 -14 -69 -29 -149
-107 -69 -68 -96 -89 -106 -82 -8 6 -61 46 -117 91 -238 185 -505 339 -784
449 -66 26 -121 48 -122 50 -2 1 11 54 27 118 23 89 29 129 24 165 -17 125
-113 212 -237 213 -65 1 -112 -18 -165 -66 -45 -40 -61 -76 -96 -210 -27 -104
-8 -96 -186 -71 -157 22 -259 29 -425 29 -136 1 -361 -10 -375 -17 -3 -2 -32
-6 -65 -10 -60 -6 -97 -12 -147 -22 -26 -5 -28 -2 -43 53 -47 170 -57 195 -91
232 -57 64 -140 94 -221 80z m687 -676 c1 -65 62 -153 132 -189 52 -27 145
-30 200 -6 79 35 147 125 148 196 l0 28 58 -6 c109 -12 140 -17 238 -36 172
-34 235 -50 389 -101 428 -143 801 -376 1130 -704 114 -114 271 -299 314 -369
13 -22 12 -26 -22 -56 -96 -84 -104 -247 -16 -342 61 -65 178 -95 253 -64 21
9 40 16 43 16 11 0 98 -214 145 -355 17 -54 64 -231 74 -280 13 -63 35 -198
40 -241 3 -27 7 -60 10 -74 3 -14 6 -117 8 -230 3 -186 0 -251 -19 -420 -29
-249 -120 -581 -219 -795 -19 -41 -37 -75 -39 -75 -3 0 -22 7 -43 16 -28 12
-58 15 -106 12 -57 -5 -74 -10 -117 -42 -127 -94 -135 -286 -15 -383 l38 -31
-26 -38 c-160 -230 -454 -518 -713 -696 -291 -201 -631 -352 -985 -437 -101
-24 -116 -27 -245 -45 -181 -27 -167 -29 -180 31 -12 53 -19 66 -64 116 -61
68 -176 90 -269 52 -73 -30 -142 -128 -142 -202 0 -22 9 -22 -170 3 -192 26
-515 109 -635 163 -11 5 -45 19 -75 31 -459 186 -934 561 -1228 969 l-38 54
37 34 c60 54 83 111 76 191 -6 76 -22 113 -69 159 -64 62 -152 83 -240 56 -28
-8 -51 -13 -53 -11 -6 8 -50 111 -85 203 -63 166 -115 355 -145 528 -3 15 -7
39 -10 55 -6 36 -14 104 -24 210 -9 97 -7 450 4 527 22 166 39 263 61 363 50
225 184 582 215 573 81 -22 118 -27 159 -18 194 40 263 286 116 414 l-43 38
60 80 c134 178 331 383 482 503 44 35 89 71 100 80 91 76 328 219 488 296 172
82 436 178 549 200 13 2 43 9 68 16 62 15 299 54 355 58 43 3 45 2 45 -25z"/>
<path d="M3068 6389 c-117 -18 -201 -117 -201 -239 0 -97 50 -176 138 -216 93
-44 191 -27 266 46 172 164 32 444 -203 409z"/>
<path d="M4205 6389 c-60 -8 -105 -29 -140 -67 -63 -66 -86 -160 -60 -242 54
-164 256 -223 385 -112 182 155 51 453 -185 421z"/>
<path d="M2146 6000 c-38 -12 -98 -54 -123 -88 -114 -155 -5 -381 186 -384
131 -2 233 84 248 210 7 59 -17 144 -51 182 -67 76 -169 107 -260 80z"/>
<path d="M5060 6001 c-110 -34 -173 -117 -174 -232 -2 -131 91 -231 225 -242
118 -11 238 89 253 209 21 168 -146 313 -304 265z"/>
<path d="M2682 5468 c-54 -18 -119 -83 -140 -140 -82 -221 155 -415 355 -290
73 46 121 145 109 229 -10 78 -54 140 -130 188 -36 22 -146 29 -194 13z"/>
<path d="M4491 5468 c-18 -5 -57 -33 -86 -61 -41 -42 -55 -64 -64 -105 -44
-180 104 -333 288 -298 145 28 230 211 160 345 -55 105 -177 154 -298 119z"/>
<path d="M3600 4904 c-25 -7 -64 -29 -87 -48 -170 -146 -68 -420 157 -420 78
0 131 24 182 84 156 181 -22 452 -252 384z"/>
<path d="M1043 4440 c-142 -81 -167 -265 -53 -379 124 -124 326 -82 395 82 18
44 14 153 -8 194 -65 123 -218 169 -334 103z"/>
<path d="M6100 4459 c-50 -20 -102 -64 -128 -108 -23 -39 -27 -58 -27 -122 0
-67 4 -81 30 -124 19 -31 49 -61 80 -80 44 -27 57 -30 130 -30 77 0 83 2 130
36 160 115 134 348 -48 424 -41 17 -129 19 -167 4z"/>
<path d="M2778 4380 c-178 -53 -230 -289 -91 -411 100 -87 242 -82 334 12 61
62 82 150 58 236 -17 62 -96 143 -155 161 -46 13 -105 14 -146 2z"/>
<path d="M4400 4371 c-116 -48 -180 -195 -134 -307 55 -135 203 -195 327 -135
126 61 174 201 112 327 -55 112 -189 163 -305 115z"/>
<path d="M1809 3902 c-169 -57 -218 -272 -90 -399 119 -120 331 -74 393 84 53
137 -33 295 -175 322 -64 12 -75 11 -128 -7z"/>
<path d="M5399 3904 c-95 -28 -164 -126 -162 -229 2 -141 101 -239 239 -239
133 1 232 94 239 224 10 171 -148 293 -316 244z"/>
<path d="M2778 3431 c-131 -42 -202 -182 -159 -311 20 -60 95 -135 152 -151
125 -35 239 16 299 135 22 42 20 152 -4 198 -21 44 -69 93 -111 115 -34 18
-138 26 -177 14z"/>
<path d="M4409 3427 c-155 -58 -207 -248 -105 -381 14 -19 50 -46 80 -61 165
-81 348 32 348 215 -1 91 -49 173 -126 212 -51 26 -148 33 -197 15z"/>
<path d="M1077 3356 c-169 -62 -213 -288 -80 -406 125 -110 311 -73 379 75 57
121 7 263 -113 320 -49 24 -137 29 -186 11z"/>
<path d="M6084 3350 c-44 -19 -98 -70 -121 -115 -27 -52 -29 -143 -3 -203 48
-112 155 -165 277 -137 186 43 248 274 109 409 -65 63 -176 82 -262 46z"/>
<path d="M3614 2960 c-69 -16 -140 -78 -169 -147 -21 -49 -19 -139 4 -188 49
-110 185 -170 294 -131 101 37 157 109 164 214 5 77 -9 121 -59 177 -56 65
-150 95 -234 75z"/>
<path d="M2658 2322 c-222 -111 -147 -451 101 -455 222 -3 332 269 169 420
-68 64 -183 79 -270 35z"/>
<path d="M4510 2341 c-136 -44 -205 -170 -167 -302 62 -211 358 -234 448 -34
26 58 30 94 18 152 -21 105 -110 182 -217 189 -31 2 -68 0 -82 -5z"/>
<path d="M2167 1858 c-55 -12 -89 -32 -129 -76 -131 -145 -41 -378 153 -399
106 -11 206 48 249 149 75 175 -85 367 -273 326z"/>
<path d="M5075 1860 c-220 -49 -261 -349 -62 -451 155 -80 342 28 352 202 8
153 -141 282 -290 249z"/>
<path d="M3028 1466 c-52 -19 -82 -40 -112 -79 -97 -127 -46 -312 103 -374 75
-31 191 -9 253 48 73 68 96 198 50 285 -55 107 -184 159 -294 120z"/>
<path d="M4170 1471 c-114 -35 -186 -140 -174 -256 20 -202 267 -290 410 -146
92 92 92 246 -1 341 -56 58 -158 84 -235 61z"/>
<path d="M1881 6862 c-91 -30 -161 -130 -161 -228 0 -38 17 -114 25 -114 6 0
69 36 230 128 72 42 142 83 157 91 37 21 35 32 -11 74 -64 58 -157 77 -240 49z"/>
<path d="M5308 6871 c-50 -16 -127 -80 -128 -106 0 -9 398 -245 413 -245 12 0
30 76 29 125 -1 88 -52 169 -134 211 -37 19 -140 28 -180 15z"/>
<path d="M655 5620 c-185 -39 -251 -277 -114 -411 16 -16 33 -29 37 -29 10 0
234 387 236 407 1 10 -15 20 -44 29 -46 14 -64 14 -115 4z"/>
<path d="M6562 5615 c-17 -5 -34 -13 -38 -17 -4 -4 15 -45 41 -90 26 -45 56
-98 67 -117 65 -117 123 -211 129 -211 19 0 67 53 89 96 29 59 34 141 11 199
-45 114 -185 180 -299 140z"/>
<path d="M192 3909 c-111 -21 -196 -136 -186 -253 9 -115 96 -207 210 -223
l30 -4 0 240 c-1 131 -3 241 -6 243 -3 3 -24 1 -48 -3z"/>
<path d="M7103 3911 c-5 -3 -9 -113 -9 -244 l0 -239 41 7 c224 35 272 348 70
453 -38 19 -90 31 -102 23z"/>
<path d="M535 2131 c-95 -95 -94 -252 2 -343 64 -61 174 -85 248 -54 19 8 35
18 35 21 0 10 -235 415 -241 415 -3 0 -23 -17 -44 -39z"/>
<path d="M6685 2047 c-38 -67 -93 -161 -121 -209 l-52 -87 39 -15 c80 -32 187
-10 252 52 72 67 93 180 53 269 -20 42 -80 113 -96 113 -3 0 -36 -55 -75 -123z"/>
<path d="M1733 792 c-49 -112 16 -259 136 -309 50 -21 139 -20 186 3 36 17
121 91 113 99 -1 2 -97 57 -211 124 l-208 120 -16 -37z"/>
<path d="M5500 778 c-47 -28 -141 -83 -208 -123 l-124 -72 36 -37 c48 -47 87
-67 150 -73 143 -15 266 93 266 234 0 45 -21 125 -32 122 -2 0 -41 -24 -88
-51z"/>
<path d="M3430 223 c0 -45 44 -127 86 -160 126 -98 298 -61 368 79 14 29 26
65 26 80 l0 28 -240 0 -240 0 0 -27z"/>
</g>
</svg>
