<?xml version="1.0" standalone="no"?>
<!DOCTYPE svg PUBLIC "-//W3C//DTD SVG 20010904//EN"
 "http://www.w3.org/TR/2001/REC-SVG-20010904/DTD/svg10.dtd">
<svg version="1.0" xmlns="http://www.w3.org/2000/svg"
 width="353.000000pt" height="228.000000pt" viewBox="0 0 353.000000 228.000000"
 preserveAspectRatio="xMidYMid meet">

<g transform="translate(0.000000,228.000000) scale(0.100000,-0.100000)"
fill="#000000" stroke="none">
<path d="M104 2261 c-32 -14 -82 -78 -89 -115 -4 -18 -8 -431 -8 -917 -2 -827
-1 -888 16 -944 43 -143 144 -233 299 -270 94 -22 1786 -22 1871 0 134 35 236
115 292 228 41 85 65 173 65 239 0 43 2 48 23 48 12 0 66 5 121 10 255 25 459
120 618 288 87 93 143 193 184 327 24 80 27 106 27 235 0 124 -3 159 -26 242
-80 302 -285 505 -617 611 -64 21 -77 21 -1410 24 -740 1 -1354 -2 -1366 -6z
m2731 -87 c88 -20 218 -80 300 -138 214 -153 324 -393 312 -681 -8 -196 -65
-337 -190 -472 -173 -184 -376 -263 -707 -276 l-65 -2 -8 -90 c-18 -212 -90
-335 -235 -403 l-57 -27 -930 0 -930 0 -48 22 c-80 37 -123 78 -159 151 l-33
67 0 901 c0 958 -1 939 46 960 11 5 608 8 1327 6 1150 -2 1315 -4 1377 -18z"/>
<path d="M2510 1833 c-19 -14 -20 -28 -20 -438 0 -419 0 -424 21 -435 13 -7
67 -10 147 -8 119 3 132 5 194 35 167 79 251 224 251 433 -1 187 -79 313 -248
397 -52 27 -313 38 -345 16z m318 -87 c76 -39 128 -91 164 -164 31 -63 33 -72
32 -172 -1 -128 -24 -195 -89 -267 -62 -70 -130 -104 -228 -114 -44 -4 -93 -5
-108 -2 l-29 5 0 369 0 369 105 0 c92 0 112 -3 153 -24z"/>
</g>
</svg>
