<?xml version="1.0" standalone="no"?>
<!DOCTYPE svg PUBLIC "-//W3C//DTD SVG 20010904//EN"
 "http://www.w3.org/TR/2001/REC-SVG-20010904/DTD/svg10.dtd">
<svg version="1.0" xmlns="http://www.w3.org/2000/svg"
 width="353.000000pt" height="228.000000pt" viewBox="0 0 353.000000 228.000000"
 preserveAspectRatio="xMidYMid meet">
<metadata>
Created by potrace 1.16, written by Peter Selinger 2001-2019
</metadata>
<g transform="translate(0.000000,228.000000) scale(0.100000,-0.100000)"
fill="#000000" stroke="none">
<path d="M93 2259 c-33 -16 -48 -33 -68 -73 l-26 -52 3 -915 3 -914 22 -54
c48 -117 132 -195 251 -231 62 -19 95 -20 977 -20 868 0 916 1 974 19 121 37
216 120 271 235 28 61 60 189 60 244 l0 29 108 6 c243 14 453 100 610 251 174
165 252 356 252 611 0 369 -176 649 -505 801 -164 76 -65 71 -1555 78 l-1335
7 -42 -22z m2742 -85 c88 -20 218 -80 300 -138 214 -153 324 -393 312 -681 -8
-196 -65 -337 -190 -472 -173 -184 -376 -263 -707 -276 l-65 -2 -8 -90 c-18
-212 -90 -335 -235 -403 l-57 -27 -930 0 -930 0 -48 22 c-80 37 -123 78 -159
151 l-33 67 0 901 c0 958 -1 939 46 960 11 5 608 8 1327 6 1150 -2 1315 -4
1377 -18z"/>
<path d="M2510 1833 c-19 -14 -20 -28 -20 -438 0 -419 0 -424 21 -435 13 -7
67 -10 147 -8 119 3 132 5 194 35 167 79 251 224 251 433 -1 187 -79 313 -248
397 -52 27 -313 38 -345 16z m353 -117 c118 -79 163 -174 155 -331 -8 -154
-72 -258 -198 -321 -46 -24 -71 -29 -152 -32 l-98 -4 0 304 c0 168 3 333 7
367 l6 63 111 -4 c110 -3 111 -3 169 -42z"/>
</g>
</svg>
