<svg xmlns="http://www.w3.org/2000/svg" data-v-fde0c5aa="" width="220" height="37" style=""><rect id="backgroundrect" width="100%" height="100%" x="0" y="0" fill="none" stroke="none" class="" style=""/><!----><defs data-v-fde0c5aa=""><!----></defs><defs data-v-fde0c5aa=""><!----></defs><defs data-v-fde0c5aa=""><!----></defs><!----><g class="currentLayer" style=""><title>Layer 1</title><g data-v-fde0c5aa="" id="660b2a99-0f9b-4456-b270-4bef6b98b03a" fill="#000000" class=""><path d="M57.09950624416952,28.45651196410961 L57.09950624416952,28.45651196410961 L57.09950624416952,28.45651196410961 Q61.88343091969567,28.45651196410961 61.88343091969567,25.199849626310083 L61.88343091969567,25.199849626310083 L61.88343091969567,25.199849626310083 Q61.88343091969567,24.189161314579223 61.456695854742634,23.47044962623727 L61.456695854742634,23.47044962623727 L61.456695854742634,23.47044962623727 Q61.0299607897896,22.774197678155986 60.31124910144764,22.25762365216019 L60.31124910144764,22.25762365216019 L60.31124910144764,22.25762365216019 Q59.570077672845,21.741049626164425 58.64922832215686,21.359234041732748 L58.64922832215686,21.359234041732748 L58.64922832215686,21.359234041732748 Q57.72837897146873,20.9774184573011 56.695230919477154,20.59560287286942 L56.695230919477154,20.59560287286942 L56.695230919477154,20.59560287286942 Q55.482404945400106,20.19132754817707 54.42679715314786,19.674753522181277 L54.42679715314786,19.674753522181277 L54.42679715314786,19.674753522181277 Q53.34872962063491,19.15817949618551 52.5626387115109,18.439467807843556 L52.5626387115109,18.439467807843556 L52.5626387115109,18.439467807843556 Q51.77654780238689,17.743215859762273 51.327352997173165,16.754987288292085 L51.327352997173165,16.754987288292085 L51.327352997173165,16.754987288292085 Q50.87815819195944,15.789218457082569 50.87815819195944,14.396714560920032 L50.87815819195944,14.396714560920032 L50.87815819195944,14.396714560920032 Q50.87815819195944,11.544327547812884 52.80969585437845,9.949685989304157 L52.80969585437845,9.949685989304157 L52.80969585437845,9.949685989304157 Q54.76369325705815,8.332584690534759 58.20003351694314,8.332584690534759 L58.20003351694314,8.332584690534759 L58.20003351694314,8.332584690534759 Q60.17649065988353,8.332584690534759 61.793591958652925,8.759319755487809 L61.793591958652925,8.759319755487809 L61.793591958652925,8.759319755487809 Q63.41069325742234,9.18605482044083 64.17432442628566,9.680169106175924 L64.17432442628566,9.680169106175924 L63.18609585481548,12.173200275112094 L63.18609585481548,12.173200275112094 Q62.534763387255566,11.768924950419745 61.23209845213577,11.364649625727395 L61.23209845213577,11.364649625727395 L61.23209845213577,11.364649625727395 Q59.92943351701598,10.982834041295746 58.20003351694314,10.982834041295746 L58.20003351694314,10.982834041295746 L58.20003351694314,10.982834041295746 Q57.32410364677638,10.982834041295746 56.56047247791304,11.162511963381235 L56.56047247791304,11.162511963381235 L56.56047247791304,11.162511963381235 Q55.79684130904971,11.364649625727395 55.23534780253256,11.724005469898373 L55.23534780253256,11.724005469898373 L55.23534780253256,11.724005469898373 Q54.673854296015406,12.10582105433005 54.336958192105115,12.689774301107889 L54.336958192105115,12.689774301107889 L54.336958192105115,12.689774301107889 Q54.02252182845551,13.273727547885727 54.02252182845551,14.059818457009754 L54.02252182845551,14.059818457009754 L54.02252182845551,14.059818457009754 Q54.02252182845551,14.935748327176498 54.3594179323658,15.542161314215036 L54.3594179323658,15.542161314215036 L54.3594179323658,15.542161314215036 Q54.69631403627609,16.126114560992875 55.3251867635753,16.597769106467297 L55.3251867635753,16.597769106467297 L55.3251867635753,16.597769106467297 Q55.95405949087451,17.04696391168102 56.8075296207806,17.428779496112668 L56.8075296207806,17.428779496112668 L56.8075296207806,17.428779496112668 Q57.638540010425984,17.810595080544346 58.62676858189617,18.169950924715323 L58.62676858189617,18.169950924715323 L58.62676858189617,18.169950924715323 Q60.041732218319396,18.75390417149316 61.23209845213577,19.3153976780103 L61.23209845213577,19.3153976780103 L61.23209845213577,19.3153976780103 Q62.40000494569145,19.876891184527466 63.27593481585822,20.662982093651493 L63.27593481585822,20.662982093651493 L63.27593481585822,20.662982093651493 Q64.12940494576429,21.449073002775492 64.6010594912387,22.527140535288424 L64.6010594912387,22.527140535288424 L64.6010594912387,22.527140535288424 Q65.07271403671311,23.627667808062057 65.07271403671311,25.15493014578871 L65.07271403671311,25.15493014578871 L65.07271403671311,25.15493014578871 Q65.07271403671311,28.02977689915656 62.9839581924693,29.557039236883213 L62.9839581924693,29.557039236883213 L62.9839581924693,29.557039236883213 Q60.89520234822548,31.106761314870568 57.09950624416952,31.106761314870568 L57.09950624416952,31.106761314870568 L57.09950624416952,31.106761314870568 Q55.79684130904971,31.106761314870568 54.71877377653678,30.92708339278508 L54.71877377653678,30.92708339278508 L54.71877377653678,30.92708339278508 Q53.64070624402383,30.74740547069959 52.78723611411776,30.52280806809273 L52.78723611411776,30.52280806809273 L52.78723611411776,30.52280806809273 Q51.93376598421169,30.275750925225168 51.327352997173165,30.028693782357635 L51.327352997173165,30.028693782357635 L51.327352997173165,30.028693782357635 Q50.720940010134626,29.759176899229402 50.36158416596365,29.557039236883213 L50.36158416596365,29.557039236883213 L51.28243351665179,27.04154832768637 L51.28243351665179,27.04154832768637 Q52.00114520499375,27.44582365237872 53.48348806219903,27.962397678374487 L53.48348806219903,27.962397678374487 L53.48348806219903,27.962397678374487 Q54.965830919404326,28.45651196410961 57.09950624416952,28.45651196410961 zM71.31652182918387,9.20851456070153 L71.31652182918387,14.284415859616615 L77.49295040087257,14.284415859616615 L77.49295040087257,16.732527548031413 L71.31652182918387,16.732527548031413 L71.31652182918387,24.279000275621968 L71.31652182918387,24.279000275621968 Q71.31652182918387,25.514285989959717 71.49619975126936,26.300376899083716 L71.49619975126936,26.300376899083716 L71.49619975126936,26.300376899083716 Q71.67587767335485,27.108927548468415 72.05769325778653,27.558122353682137 L72.05769325778653,27.558122353682137 L72.05769325778653,27.558122353682137 Q72.43950884221817,28.02977689915656 73.00100234873534,28.209454821242048 L73.00100234873534,28.209454821242048 L73.00100234873534,28.209454821242048 Q73.5624958552525,28.389132743327536 74.32612702411583,28.389132743327536 L74.32612702411583,28.389132743327536 L74.32612702411583,28.389132743327536 Q75.65125169949631,28.389132743327536 76.43734260862033,28.09715611993863 L76.43734260862033,28.09715611993863 L76.43734260862033,28.09715611993863 Q77.24589325800503,27.805179496549698 77.56032962165463,27.67042105498558 L77.56032962165463,27.67042105498558 L78.1218231281718,30.09607300313968 L78.1218231281718,30.09607300313968 Q77.69508806321875,30.32067040574654 76.59456079044513,30.635106769396145 L76.59456079044513,30.635106769396145 L76.59456079044513,30.635106769396145 Q75.49403351767151,30.97200287330645 74.07906988124827,30.97200287330645 L74.07906988124827,30.97200287330645 L74.07906988124827,30.97200287330645 Q72.4170491019575,30.97200287330645 71.31652182918387,30.5452678083534 L71.31652182918387,30.5452678083534 L71.31652182918387,30.5452678083534 Q70.23845429667094,30.11853274340038 69.58712182911104,29.28752235375498 L69.58712182911104,29.28752235375498 L69.58712182911104,29.28752235375498 Q68.91332962129046,28.43405222384891 68.64381273816221,27.19876650951116 L68.64381273816221,27.19876650951116 L68.64381273816221,27.19876650951116 Q68.37429585503398,25.94102105491274 68.37429585503398,24.30146001588264 L68.37429585503398,24.30146001588264 L68.37429585503398,9.725088586697296 L71.31652182918387,9.20851456070153 zM86.74636338827528,28.523891184891653 L86.74636338827528,28.523891184891653 L86.74636338827528,28.523891184891653 Q87.77951144026686,28.523891184891653 88.58806208965157,28.47897170437028 L88.58806208965157,28.47897170437028 L88.58806208965157,28.47897170437028 Q89.39661273903627,28.43405222384891 89.91318676503204,28.299293782284792 L89.91318676503204,28.299293782284792 L89.91318676503204,23.425530145715896 L89.91318676503204,23.425530145715896 Q89.59875040138243,23.26831196389108 88.90249845330118,23.156013262587663 L88.90249845330118,23.156013262587663 L88.90249845330118,23.156013262587663 Q88.1837867649592,23.04371456128422 87.195558193489,23.04371456128422 L87.195558193489,23.04371456128422 L87.195558193489,23.04371456128422 Q86.52176598566842,23.04371456128422 85.78059455706578,23.156013262587663 L85.78059455706578,23.156013262587663 L85.78059455706578,23.156013262587663 Q85.03942312846314,23.245852223630408 84.43301014142462,23.537828847019313 L84.43301014142462,23.537828847019313 L84.43301014142462,23.537828847019313 Q83.82659715438609,23.829805470408246 83.42232182969374,24.346379496404012 L83.42232182969374,24.346379496404012 L83.42232182969374,24.346379496404012 Q82.9955867647407,24.885413262660506 82.9955867647407,25.716423652305878 L82.9955867647407,25.716423652305878 L82.9955867647407,25.716423652305878 Q82.9955867647407,27.288605470553904 84.00627507647158,27.917478197853114 L84.00627507647158,27.917478197853114 L84.00627507647158,27.917478197853114 Q85.01696338820246,28.523891184891653 86.74636338827528,28.523891184891653 zM86.49930624540775,13.880140534924266 L86.49930624540775,13.880140534924266 L86.49930624540775,13.880140534924266 Q88.25116598574127,13.880140534924266 89.46399195981832,14.329335340137987 L89.46399195981832,14.329335340137987 L89.46399195981832,14.329335340137987 Q90.67681793389536,14.77853014535171 91.41798936249802,15.60954053499708 L91.41798936249802,15.60954053499708 L91.41798936249802,15.60954053499708 Q92.15916079110067,16.44055092464248 92.47359715475028,17.608457418198157 L92.47359715475028,17.608457418198157 L92.47359715475028,17.608457418198157 Q92.78803351839989,18.75390417149316 92.78803351839989,20.123948327395027 L92.78803351839989,20.123948327395027 L92.78803351839989,30.34313014600724 L92.78803351839989,30.34313014600724 Q92.40621793396821,30.410509366789285 91.73242572614762,30.52280806809273 L91.73242572614762,30.52280806809273 L91.73242572614762,30.52280806809273 Q91.05863351832704,30.635106769396145 90.20516338842097,30.72494573043889 L90.20516338842097,30.72494573043889 L90.20516338842097,30.72494573043889 Q89.3516932585149,30.814784691481634 88.36346468704468,30.90462365252438 L88.36346468704468,30.90462365252438 L88.36346468704468,30.90462365252438 Q87.37523611557451,30.97200287330645 86.40946728436501,30.97200287330645 L86.40946728436501,30.97200287330645 L86.40946728436501,30.97200287330645 Q85.01696338820246,30.97200287330645 83.84905689464676,30.702485990178218 L83.84905689464676,30.702485990178218 L83.84905689464676,30.702485990178218 Q82.68115040109109,30.410509366789285 81.8501400114457,29.804096379750774 L81.8501400114457,29.804096379750774 L81.8501400114457,29.804096379750774 Q80.99666988153962,29.175223652451564 80.52501533606522,28.186995080981376 L80.52501533606522,28.186995080981376 L80.52501533606522,28.186995080981376 Q80.0533607905908,27.176306769250488 80.0533607905908,25.76134313282725 L80.0533607905908,25.76134313282725 L80.0533607905908,25.76134313282725 Q80.0533607905908,24.413758717186084 80.59239455684727,23.425530145715896 L80.59239455684727,23.425530145715896 L80.59239455684727,23.425530145715896 Q81.15388806336443,22.45976131450638 82.09719715431325,21.85334832746787 L82.09719715431325,21.85334832746787 L82.09719715431325,21.85334832746787 Q83.04050624526207,21.269395080690003 84.29825169986049,20.9774184573011 L84.29825169986049,20.9774184573011 L84.29825169986049,20.9774184573011 Q85.55599715445892,20.685441833912165 86.92604131036077,20.685441833912165 L86.92604131036077,20.685441833912165 L86.92604131036077,20.685441833912165 Q87.37523611557451,20.685441833912165 87.84689066104892,20.730361314433537 L87.84689066104892,20.730361314433537 L87.84689066104892,20.730361314433537 Q88.31854520652334,20.79774053521561 88.74528027147636,20.865119755997654 L88.74528027147636,20.865119755997654 L88.74528027147636,20.865119755997654 Q89.17201533642938,20.954958717040398 89.48645170007902,20.99987819756177 L89.48645170007902,20.99987819756177 L89.48645170007902,20.99987819756177 Q89.80088806372862,21.067257418343843 89.91318676503204,21.112176898865215 L89.91318676503204,21.112176898865215 L89.91318676503204,20.281166509219815 L89.91318676503204,20.281166509219815 Q89.91318676503204,19.56245482087786 89.75596858320725,18.843743132535906 L89.75596858320725,18.843743132535906 L89.75596858320725,18.843743132535906 Q89.59875040138243,18.147491184454623 89.19447507669008,17.608457418198157 L89.19447507669008,17.608457418198157 L89.19447507669008,17.608457418198157 Q88.79019975199773,17.04696391168102 88.09394780391645,16.710067807770713 L88.09394780391645,16.710067807770713 L88.09394780391645,16.710067807770713 Q87.37523611557451,16.395631444121108 86.25224910254019,16.395631444121108 L86.25224910254019,16.395631444121108 L86.25224910254019,16.395631444121108 Q84.79236598559558,16.395631444121108 83.71429845308265,16.597769106467297 L83.71429845308265,16.597769106467297 L83.71429845308265,16.597769106467297 Q82.63623092056972,16.79990676881346 82.09719715431325,17.02450417142032 L82.09719715431325,17.02450417142032 L81.73784131014227,14.59885222326622 L81.73784131014227,14.59885222326622 Q82.32179455692011,14.35179508039866 83.6244594920399,14.104737937531127 L83.6244594920399,14.104737937531127 L83.6244594920399,14.104737937531127 Q84.9495841674204,13.880140534924266 86.49930624540775,13.880140534924266 zM100.35696598625114,9.20851456070153 L100.35696598625114,14.284415859616615 L106.5558542982005,14.284415859616615 L106.5558542982005,16.732527548031413 L100.35696598625114,16.732527548031413 L100.35696598625114,24.279000275621968 L100.35696598625114,24.279000275621968 Q100.35696598625114,25.514285989959717 100.5591036485973,26.300376899083716 L100.5591036485973,26.300376899083716 L100.5591036485973,26.300376899083716 Q100.73878157068279,27.108927548468415 101.12059715511444,27.558122353682137 L101.12059715511444,27.558122353682137 L101.12059715511444,27.558122353682137 Q101.50241273954612,28.02977689915656 102.06390624606328,28.209454821242048 L102.06390624606328,28.209454821242048 L102.06390624606328,28.209454821242048 Q102.62539975258042,28.389132743327536 103.38903092144378,28.389132743327536 L103.38903092144378,28.389132743327536 L103.38903092144378,28.389132743327536 Q104.69169585656357,28.389132743327536 105.50024650594827,28.09715611993863 L105.50024650594827,28.09715611993863 L105.50024650594827,28.09715611993863 Q106.30879715533297,27.805179496549698 106.62323351898257,27.67042105498558 L106.62323351898257,27.67042105498558 L107.18472702549974,30.09607300313968 L107.18472702549974,30.09607300313968 Q106.73553222028599,30.32067040574654 105.63500494751239,30.635106769396145 L105.63500494751239,30.635106769396145 L105.63500494751239,30.635106769396145 Q104.53447767473875,30.97200287330645 103.11951403831554,30.97200287330645 L103.11951403831554,30.97200287330645 L103.11951403831554,30.97200287330645 Q101.45749325902474,30.97200287330645 100.37942572651181,30.5452678083534 L100.37942572651181,30.5452678083534 L100.37942572651181,30.5452678083534 Q99.30135819399888,30.11853274340038 98.6275659861783,29.28752235375498 L98.6275659861783,29.28752235375498 L98.6275659861783,29.28752235375498 Q97.97623351861839,28.43405222384891 97.70671663549015,27.19876650951116 L97.70671663549015,27.19876650951116 L97.70671663549015,27.19876650951116 Q97.43719975236192,25.94102105491274 97.43719975236192,24.30146001588264 L97.43719975236192,24.30146001588264 L97.43719975236192,9.725088586697296 L100.35696598625114,9.20851456070153 zM123.28836079241174,14.284415859616615 L123.28836079241174,30.16345222392175 L123.28836079241174,30.16345222392175 Q122.27767248068085,30.410509366789285 120.63811144165075,30.702485990178218 L120.63811144165075,30.702485990178218 L120.63811144165075,30.702485990178218 Q118.97609066236001,30.97200287330645 116.79749585707341,30.97200287330645 L116.79749585707341,30.97200287330645 L116.79749585707341,30.97200287330645 Q114.91087767517578,30.97200287330645 113.63067248031666,30.432969107049985 L113.63067248031666,30.432969107049985 L113.63067248031666,30.432969107049985 Q112.35046728545754,29.87147560053282 111.56437637633354,28.86078728880196 L111.56437637633354,28.86078728880196 L111.56437637633354,28.86078728880196 Q110.77828546720951,27.872558717331742 110.41892962303854,26.502514561429905 L110.41892962303854,26.502514561429905 L110.41892962303854,26.502514561429905 Q110.08203351912826,25.13247040552804 110.08203351912826,23.47044962623727 L110.08203351912826,23.47044962623727 L110.08203351912826,14.284415859616615 L113.00179975301745,14.284415859616615 L113.00179975301745,22.841576898938058 L113.00179975301745,22.841576898938058 Q113.00179975301745,25.828722353609322 113.94510884396627,27.108927548468415 L113.94510884396627,27.108927548468415 L113.94510884396627,27.108927548468415 Q114.88841793491511,28.389132743327536 117.11193222072305,28.389132743327536 L117.11193222072305,28.389132743327536 L117.11193222072305,28.389132743327536 Q117.58358676619744,28.389132743327536 118.10016079219324,28.366673003066865 L118.10016079219324,28.366673003066865 L118.10016079219324,28.366673003066865 Q118.5942750779283,28.344213262806164 119.04346988314202,28.299293782284792 L119.04346988314202,28.299293782284792 L119.04346988314202,28.299293782284792 Q119.47020494809507,28.23191456150272 119.82956079226605,28.186995080981376 L119.82956079226605,28.186995080981376 L119.82956079226605,28.186995080981376 Q120.2113763766977,28.142075600459975 120.36859455852252,28.07469637967793 L120.36859455852252,28.07469637967793 L120.36859455852252,14.284415859616615 L123.28836079241174,14.284415859616615 zM132.1150387148614,28.523891184891653 L132.1150387148614,28.523891184891653 L132.1150387148614,28.523891184891653 Q133.9118179357163,28.523891184891653 134.78774780588307,28.05223663941723 L134.78774780588307,28.05223663941723 L134.78774780588307,28.05223663941723 Q135.64121793578914,27.580582093942837 135.64121793578914,26.547434041951277 L135.64121793578914,26.547434041951277 L135.64121793578914,26.547434041951277 Q135.64121793578914,25.469366509438316 134.78774780588307,24.840493782139106 L134.78774780588307,24.840493782139106 L134.78774780588307,24.840493782139106 Q133.934277675977,24.211621054839895 132.002740013558,23.425530145715896 L132.002740013558,23.425530145715896 L132.002740013558,23.425530145715896 Q131.05943092260915,23.04371456128422 130.18350105244238,22.66189897685257 L130.18350105244238,22.66189897685257 L130.18350105244238,22.66189897685257 Q129.3300309225363,22.25762365216019 128.70115819523713,21.741049626164425 L128.70115819523713,21.741049626164425 L128.70115819523713,21.741049626164425 Q128.07228546793792,21.20201585990796 127.69046988350621,20.438384691044632 L127.69046988350621,20.438384691044632 L127.69046988350621,20.438384691044632 Q127.30865429907456,19.697213262441977 127.30865429907456,18.596685989668345 L127.30865429907456,18.596685989668345 L127.30865429907456,18.596685989668345 Q127.30865429907456,16.418091184381808 128.9032958575833,15.137885989522687 L128.9032958575833,15.137885989522687 L128.9032958575833,15.137885989522687 Q130.5203971563527,13.880140534924266 133.2829452084171,13.880140534924266 L133.2829452084171,13.880140534924266 L133.2829452084171,13.880140534924266 Q133.97919715649837,13.880140534924266 134.67544910457963,13.94751975570631 L134.67544910457963,13.94751975570631 L134.67544910457963,13.94751975570631 Q135.3492413124002,14.037358716749054 135.95565429943875,14.149657418052499 L135.95565429943875,14.149657418052499 L135.95565429943875,14.149657418052499 Q136.5620672864773,14.239496379095243 137.011262091691,14.37425482065936 L137.011262091691,14.37425482065936 L137.011262091691,14.37425482065936 Q137.46045689690473,14.509013262223476 137.7075140397723,14.59885222326622 L137.7075140397723,14.59885222326622 L137.1909400137765,17.114343132463063 L137.1909400137765,17.114343132463063 Q136.71928546830208,16.86728598959553 135.7085971565712,16.597769106467297 L135.7085971565712,16.597769106467297 L135.7085971565712,16.597769106467297 Q134.69790884484033,16.328252223339064 133.2829452084171,16.328252223339064 L133.2829452084171,16.328252223339064 L133.2829452084171,16.328252223339064 Q132.04765949407934,16.328252223339064 131.1492698836519,16.79990676881346 L131.1492698836519,16.79990676881346 L131.1492698836519,16.79990676881346 Q130.22842053296378,17.29402105454855 130.22842053296378,18.32716910654011 L130.22842053296378,18.32716910654011 L130.22842053296378,18.32716910654011 Q130.22842053296378,18.866202872796578 130.43055819530994,19.270478197488956 L130.43055819530994,19.270478197488956 L130.43055819530994,19.270478197488956 Q130.63269585765613,19.697213262441977 131.05943092260915,20.011649626091582 L131.05943092260915,20.011649626091582 L131.05943092260915,20.011649626091582 Q131.4861659875622,20.348545730001888 132.1150387148614,20.640522353390793 L132.1150387148614,20.640522353390793 L132.1150387148614,20.640522353390793 Q132.74391144216062,20.910039236519026 133.6198413123274,21.22447560016863 L133.6198413123274,21.22447560016863 L133.6198413123274,21.22447560016863 Q134.78774780588307,21.673670405382353 135.7085971565712,22.100405470335403 L135.7085971565712,22.100405470335403 L135.7085971565712,22.100405470335403 Q136.60698676699863,22.527140535288424 137.25831923455854,23.08863404180559 L137.25831923455854,23.08863404180559 L137.25831923455854,23.08863404180559 Q137.90965170211845,23.65012754832276 138.24654780602876,24.458678197707457 L138.24654780602876,24.458678197707457 L138.24654780602876,24.458678197707457 Q138.60590365019974,25.244769106831484 138.60590365019974,26.41267560038716 L138.60590365019974,26.41267560038716 L138.60590365019974,26.41267560038716 Q138.60590365019974,28.68110936671644 136.92142313064826,29.849015860272146 L136.92142313064826,29.849015860272146 L136.92142313064826,29.849015860272146 Q135.2369426110968,31.016922353827823 132.1150387148614,31.016922353827823 L132.1150387148614,31.016922353827823 L132.1150387148614,31.016922353827823 Q129.95890364983555,31.016922353827823 128.7236179354978,30.635106769396145 L128.7236179354978,30.635106769396145 L128.7236179354978,30.635106769396145 Q127.48833222116005,30.275750925225168 127.061597156207,30.09607300313968 L127.061597156207,30.09607300313968 L127.60063092246347,27.580582093942837 L127.60063092246347,27.580582093942837 Q128.0947452081986,27.760260016028326 129.1952724809722,28.142075600459975 L129.1952724809722,28.142075600459975 L129.1952724809722,28.142075600459975 Q130.29579975374583,28.523891184891653 132.1150387148614,28.523891184891653 zM156.7084543003128,31.016922353827823 L156.7084543003128,31.016922353827823 L156.7084543003128,31.016922353827823 Q154.7319971573724,31.016922353827823 153.22719455990642,30.388049626528613 L153.22719455990642,30.388049626528613 L153.22719455990642,30.388049626528613 Q151.74485170270114,29.759176899229402 150.71170365070958,28.6137301459344 L150.71170365070958,28.6137301459344 L150.71170365070958,28.6137301459344 Q149.7010153389787,27.490743132900093 149.1844413129829,25.94102105491274 L149.1844413129829,25.94102105491274 L149.1844413129829,25.94102105491274 Q148.69032702724783,24.368839236664712 148.69032702724783,22.48222105476708 L148.69032702724783,22.48222105476708 L148.69032702724783,22.48222105476708 Q148.69032702724783,20.59560287286942 149.25182053376497,19.023421054621394 L149.25182053376497,19.023421054621394 L149.25182053376497,19.023421054621394 Q149.79085430002144,17.451239236373368 150.80154261175232,16.305792483078363 L150.80154261175232,16.305792483078363 L150.80154261175232,16.305792483078363 Q151.8122309234832,15.160345729783359 153.2721140404278,14.509013262223476 L153.2721140404278,14.509013262223476 L153.2721140404278,14.509013262223476 Q154.7319971573724,13.880140534924266 156.5287763782273,13.880140534924266 L156.5287763782273,13.880140534924266 L156.5287763782273,13.880140534924266 Q157.62930365100092,13.880140534924266 158.72983092377456,14.059818457009754 L158.72983092377456,14.059818457009754 L158.72983092377456,14.059818457009754 Q159.8303581965482,14.239496379095243 160.81858676801838,14.666231444048265 L160.81858676801838,14.666231444048265 L160.16725430045847,17.136802872723763 L160.16725430045847,17.136802872723763 Q159.51592183289856,16.822366509074158 158.6399919627318,16.64268858698867 L158.6399919627318,16.64268858698867 L158.6399919627318,16.64268858698867 Q157.78652183282574,16.44055092464248 156.79829326135555,16.44055092464248 L156.79829326135555,16.44055092464248 L156.79829326135555,16.44055092464248 Q154.35018157294073,16.44055092464248 153.04751663782096,17.990273002629834 L153.04751663782096,17.990273002629834 L153.04751663782096,17.990273002629834 Q151.74485170270114,19.53999508061719 151.74485170270114,22.48222105476708 L151.74485170270114,22.48222105476708 L151.74485170270114,22.48222105476708 Q151.74485170270114,23.807345730147546 152.03682832609005,24.90787300292118 L152.03682832609005,24.90787300292118 L152.03682832609005,24.90787300292118 Q152.32880494947898,26.00840027569481 152.9801374170389,26.79449118481881 L152.9801374170389,26.79449118481881 L152.9801374170389,26.79449118481881 Q153.63146988459877,27.580582093942837 154.64215819632966,28.007317158895887 L154.64215819632966,28.007317158895887 L154.64215819632966,28.007317158895887 Q155.63038676779985,28.43405222384891 157.09026988474446,28.43405222384891 L157.09026988474446,28.43405222384891 L157.09026988474446,28.43405222384891 Q158.25817637830013,28.43405222384891 159.20148546924898,28.209454821242048 L159.20148546924898,28.209454821242048 L159.20148546924898,28.209454821242048 Q160.1447945601978,27.984857418635187 160.66136858619356,27.737800275767626 L160.66136858619356,27.737800275767626 L161.0881036511466,30.185911964182424 L161.0881036511466,30.185911964182424 Q160.81858676801838,30.34313014600724 160.34693222254396,30.477888587571357 L160.34693222254396,30.477888587571357 L160.34693222254396,30.477888587571357 Q159.87527767706953,30.635106769396145 159.29132443029172,30.74740547069959 L159.29132443029172,30.74740547069959 L159.29132443029172,30.74740547069959 Q158.68491144325318,30.859704172003035 158.01111923543257,30.92708339278508 L158.01111923543257,30.92708339278508 L158.01111923543257,30.92708339278508 Q157.33732702761202,31.016922353827823 156.7084543003128,31.016922353827823 zM178.6516205350032,22.45976131450638 L178.6516205350032,22.45976131450638 L178.6516205350032,22.45976131450638 Q178.6516205350032,24.413758717186084 178.09012702848605,25.98594053543411 L178.09012702848605,25.98594053543411 L178.09012702848605,25.98594053543411 Q177.52863352196889,27.558122353682137 176.49548546997733,28.68110936671644 L176.49548546997733,28.68110936671644 L176.49548546997733,28.68110936671644 Q175.48479715824644,29.804096379750774 174.06983352182323,30.432969107049985 L174.06983352182323,30.432969107049985 L174.06983352182323,30.432969107049985 Q172.6548698854,31.039382094088523 170.99284910610922,31.039382094088523 L170.99284910610922,31.039382094088523 L170.99284910610922,31.039382094088523 Q169.30836858655775,31.039382094088523 167.8934049501345,30.432969107049985 L167.8934049501345,30.432969107049985 L167.8934049501345,30.432969107049985 Q166.47844131371127,29.804096379750774 165.4677530019804,28.68110936671644 L165.4677530019804,28.68110936671644 L165.4677530019804,28.68110936671644 Q164.43460494998882,27.558122353682137 163.87311144347169,25.98594053543411 L163.87311144347169,25.98594053543411 L163.87311144347169,25.98594053543411 Q163.31161793695455,24.413758717186084 163.31161793695455,22.45976131450638 L163.31161793695455,22.45976131450638 L163.31161793695455,22.45976131450638 Q163.31161793695455,20.528223652087377 163.87311144347169,18.956041833839322 L163.87311144347169,18.956041833839322 L163.87311144347169,18.956041833839322 Q164.43460494998882,17.361400275330624 165.4677530019804,16.23841326229632 L165.4677530019804,16.23841326229632 L165.4677530019804,16.23841326229632 Q166.47844131371127,15.092966509001315 167.8934049501345,14.486553521962776 L167.8934049501345,14.486553521962776 L167.8934049501345,14.486553521962776 Q169.30836858655775,13.880140534924266 170.99284910610922,13.880140534924266 L170.99284910610922,13.880140534924266 L170.99284910610922,13.880140534924266 Q172.6548698854,13.880140534924266 174.06983352182323,14.486553521962776 L174.06983352182323,14.486553521962776 L174.06983352182323,14.486553521962776 Q175.48479715824644,15.092966509001315 176.49548546997733,16.23841326229632 L176.49548546997733,16.23841326229632 L176.49548546997733,16.23841326229632 Q177.52863352196889,17.361400275330624 178.09012702848605,18.956041833839322 L178.09012702848605,18.956041833839322 L178.09012702848605,18.956041833839322 Q178.6516205350032,20.528223652087377 178.6516205350032,22.45976131450638 zM175.59709585954988,22.45976131450638 L175.59709585954988,22.45976131450638 L175.59709585954988,22.45976131450638 Q175.59709585954988,19.697213262441977 174.36181014521216,18.08011196367258 L174.36181014521216,18.08011196367258 L174.36181014521216,18.08011196367258 Q173.1265244308744,16.44055092464248 170.99284910610922,16.44055092464248 L170.99284910610922,16.44055092464248 L170.99284910610922,16.44055092464248 Q168.83671404108335,16.44055092464248 167.6014283267456,18.08011196367258 L167.6014283267456,18.08011196367258 L167.6014283267456,18.08011196367258 Q166.36614261240786,19.697213262441977 166.36614261240786,22.45976131450638 L166.36614261240786,22.45976131450638 L166.36614261240786,22.45976131450638 Q166.36614261240786,25.222309366570784 167.6014283267456,26.839410665340182 L167.6014283267456,26.839410665340182 L167.6014283267456,26.839410665340182 Q168.83671404108335,28.45651196410961 170.99284910610922,28.45651196410961 L170.99284910610922,28.45651196410961 L170.99284910610922,28.45651196410961 Q173.1265244308744,28.45651196410961 174.36181014521216,26.839410665340182 L174.36181014521216,26.839410665340182 L174.36181014521216,26.839410665340182 Q175.59709585954988,25.222309366570784 175.59709585954988,22.45976131450638 zM192.53174001610728,14.284415859616615 L195.54134521103921,14.284415859616615 L195.54134521103921,14.284415859616615 Q194.30605949670147,18.866202872796578 192.6664984576714,23.08863404180559 L192.6664984576714,23.08863404180559 L192.6664984576714,23.08863404180559 Q191.00447767838062,27.288605470553904 189.47721534065394,30.635106769396145 L189.47721534065394,30.635106769396145 L186.82696598989298,30.635106769396145 L186.82696598989298,30.635106769396145 Q185.29970365216633,27.288605470553904 183.63768287287553,23.08863404180559 L183.63768287287553,23.08863404180559 L183.63768287287553,23.08863404180559 Q181.99812183384546,18.866202872796578 180.7628361195077,14.284415859616615 L180.7628361195077,14.284415859616615 L183.9071997560038,14.284415859616615 L183.9071997560038,14.284415859616615 Q184.28901534043544,15.81167819734327 184.80558936643124,17.563537937676784 L184.80558936643124,17.563537937676784 L184.80558936643124,17.563537937676784 Q185.322163392427,19.3153976780103 185.90611663920484,21.02233793782247 L185.90611663920484,21.02233793782247 L185.90611663920484,21.02233793782247 Q186.49006988598268,22.729278197634613 187.07402313276052,24.346379496404012 L187.07402313276052,24.346379496404012 L187.07402313276052,24.346379496404012 Q187.68043611979905,25.94102105491274 188.21946988605552,27.19876650951116 L188.21946988605552,27.19876650951116 L188.21946988605552,27.19876650951116 Q188.758503652312,25.94102105491274 189.34245689908985,24.346379496404012 L189.34245689908985,24.346379496404012 L189.34245689908985,24.346379496404012 Q189.94886988612836,22.729278197634613 190.5328231329062,21.02233793782247 L190.5328231329062,21.02233793782247 L190.5328231329062,21.02233793782247 Q191.11677637968404,19.3153976780103 191.63335040567983,17.563537937676784 L191.63335040567983,17.563537937676784 L191.63335040567983,17.563537937676784 Q192.14992443167563,15.81167819734327 192.53174001610728,14.284415859616615 L192.53174001610728,14.284415859616615 zM201.49317638012107,14.284415859616615 L201.49317638012107,30.635106769396145 L198.55095040597118,30.635106769396145 L198.55095040597118,14.284415859616615 L201.49317638012107,14.284415859616615 zM200.0108335229158,11.319730145206023 L200.0108335229158,11.319730145206023 L200.0108335229158,11.319730145206023 Q199.22474261379176,11.319730145206023 198.6632491072746,10.803156119210257 L198.6632491072746,10.803156119210257 L198.6632491072746,10.803156119210257 Q198.12421534101813,10.286582093214463 198.12421534101813,9.410652223047691 L198.12421534101813,9.410652223047691 L198.12421534101813,9.410652223047691 Q198.12421534101813,8.534722352880948 198.6632491072746,7.995688586624482 L198.6632491072746,7.995688586624482 L198.6632491072746,7.995688586624482 Q199.22474261379176,7.4791145606286875 200.0108335229158,7.4791145606286875 L200.0108335229158,7.4791145606286875 L200.0108335229158,7.4791145606286875 Q200.7969244320398,7.4791145606286875 201.33595819829628,7.995688586624482 L201.33595819829628,7.995688586624482 L201.33595819829628,7.995688586624482 Q201.89745170481345,8.534722352880948 201.89745170481345,9.410652223047691 L201.89745170481345,9.410652223047691 L201.89745170481345,9.410652223047691 Q201.89745170481345,10.286582093214463 201.33595819829628,10.803156119210257 L201.33595819829628,10.803156119210257 L201.33595819829628,10.803156119210257 Q200.7969244320398,11.319730145206023 200.0108335229158,11.319730145206023 zM217.0802361210373,28.07469637967793 L217.0802361210373,17.743215859762273 L217.0802361210373,17.743215859762273 Q216.54120235478084,17.29402105454855 215.53051404304995,16.8897457298562 L215.53051404304995,16.8897457298562 L215.53051404304995,16.8897457298562 Q214.54228547157976,16.485470405163852 213.32945949750268,16.485470405163852 L213.32945949750268,16.485470405163852 L213.32945949750268,16.485470405163852 Q212.07171404290426,16.485470405163852 211.17332443247682,16.934665210377574 L211.17332443247682,16.934665210377574 L211.17332443247682,16.934665210377574 Q210.29739456231007,17.383860015591296 209.7134413155322,18.192410664975995 L209.7134413155322,18.192410664975995 L209.7134413155322,18.192410664975995 Q209.15194780901504,19.000961314360723 208.9048906661475,20.101488587134327 L208.9048906661475,20.101488587134327 L208.9048906661475,20.101488587134327 Q208.65783352327995,21.20201585990796 208.65783352327995,22.45976131450638 L208.65783352327995,22.45976131450638 L208.65783352327995,22.45976131450638 Q208.65783352327995,25.312148327613528 210.07279715970319,26.884330145861554 L210.07279715970319,26.884330145861554 L210.07279715970319,26.884330145861554 Q211.48776079612642,28.43405222384891 213.84603352349848,28.43405222384891 L213.84603352349848,28.43405222384891 L213.84603352349848,28.43405222384891 Q215.03639975731485,28.43405222384891 215.84495040669955,28.321753522545464 L215.84495040669955,28.321753522545464 L215.84495040669955,28.321753522545464 Q216.63104131582352,28.209454821242048 217.0802361210373,28.07469637967793 L217.0802361210373,28.07469637967793 zM217.0802361210373,15.00312754795857 L217.0802361210373,6.737943132026032 L220.00000235492647,6.2213691060302665 L220.00000235492647,30.16345222392175 L220.00000235492647,30.16345222392175 Q218.9893140431956,30.432969107049985 217.41713222494755,30.72494573043889 L217.41713222494755,30.72494573043889 L217.41713222494755,30.72494573043889 Q215.84495040669955,31.016922353827823 213.8011140429771,31.016922353827823 L213.8011140429771,31.016922353827823 L213.8011140429771,31.016922353827823 Q211.91449586107947,31.016922353827823 210.4096932636135,30.410509366789285 L210.4096932636135,30.410509366789285 L210.4096932636135,30.410509366789285 Q208.9048906661475,29.804096379750774 207.82682313363455,28.70356910697714 L207.82682313363455,28.70356910697714 L207.82682313363455,28.70356910697714 Q206.77121534138232,27.60304183420351 206.18726209460448,26.030860015955483 L206.18726209460448,26.030860015955483 L206.18726209460448,26.030860015955483 Q205.60330884782664,24.436218457446756 205.60330884782664,22.45976131450638 L205.60330884782664,22.45976131450638 L205.60330884782664,22.45976131450638 Q205.60330884782664,20.57314313260875 206.09742313356173,19.000961314360723 L206.09742313356173,19.000961314360723 L206.09742313356173,19.000961314360723 Q206.56907767903616,17.428779496112668 207.51238676998497,16.283332742817663 L207.51238676998497,16.283332742817663 L207.51238676998497,16.283332742817663 Q208.4556958609338,15.160345729783359 209.82574001683562,14.531473002484148 L209.82574001683562,14.531473002484148 L209.82574001683562,14.531473002484148 Q211.1957841727375,13.902600275184938 212.9701036533317,13.902600275184938 L212.9701036533317,13.902600275184938 L212.9701036533317,13.902600275184938 Q214.38506728975494,13.902600275184938 215.46313482226788,14.284415859616615 L215.46313482226788,14.284415859616615 L215.46313482226788,14.284415859616615 Q216.54120235478084,14.666231444048265 217.0802361210373,15.00312754795857 L217.0802361210373,15.00312754795857 z" stroke-width="0" id="svg_2"/></g><g data-v-fde0c5aa="" id="9a5ded67-4753-4725-928e-348fd5d33055" stroke="none" fill="#1976D2" class=""><circle cx="-44.61848299321517" cy="-236.39936569619618" r="2.6440000534057617" transform="matrix(0.46701976237033327,0,0,0.46701976237033327,35.32980282168142,126.63273306877483) " stroke-width="0" id="svg_3"/><circle cx="-63.038481162160494" cy="-225.26736572671376" r="2.6449999809265137" transform="matrix(0.46701976237033327,0,0,0.46701976237033327,35.32980282168142,126.63273306877483) " stroke-width="0" id="svg_4"/><circle cx="-8.259481833547186" cy="-237.2913639872118" r="2.6440000534057617" transform="matrix(0.46701976237033327,0,0,0.46701976237033327,35.32980282168142,126.63273306877483) " stroke-width="0" id="svg_5"/><circle cx="-8.259481833547186" cy="-225.26736572671376" r="2.6449999809265137" transform="matrix(0.46701976237033327,0,0,0.46701976237033327,35.32980282168142,126.63273306877483) " stroke-width="0" id="svg_6"/><circle cx="-45.51448290166243" cy="-214.13636520791493" r="2.6440000534057617" transform="matrix(0.46701976237033327,0,0,0.46701976237033327,35.32980282168142,126.63273306877483) " stroke-width="0" id="svg_7"/><circle cx="-25.784479544728832" cy="-214.13636520791493" r="2.6449999809265137" transform="matrix(0.46701976237033327,0,0,0.46701976237033327,35.32980282168142,126.63273306877483) " stroke-width="0" id="svg_8"/><path d="M27.277223338149653,19.716794698065456 a1.2348002517071612,1.2348002517071612 0 1 1 1.2348002517071612,-2.138483491893756 a1.2348002517071612,1.2348002517071612 0 0 1 -1.2348002517071612,2.138483491893756 zM8.993399641351111,19.716794698065456 a1.2348002517071612,1.2348002517071612 0 1 1 1.2348002517071612,-2.138483491893756 a1.2348002517071612,1.2348002517071612 0 0 1 -1.2348002517071612,2.138483491893756 z" stroke-width="0" id="svg_9"/><circle cx="-25.78548281010969" cy="-248.30736282754384" r="2.6440000534057617" transform="matrix(0.46701976237033327,0,0,0.46701976237033327,35.32980282168142,126.63273306877483) " stroke-width="0" id="svg_10"/><circle cx="-45.51448290166243" cy="-248.30736282754384" r="2.6440000534057617" transform="matrix(0.46701976237033327,0,0,0.46701976237033327,35.32980282168142,126.63273306877483) " stroke-width="0" id="svg_11"/><circle cx="-51.49048082646713" cy="-254.06636360574208" r="2.6440000534057617" transform="matrix(0.46701976237033327,0,0,0.46701976237033327,35.32980282168142,126.63273306877483) " stroke-width="0" id="svg_12"/><circle cx="-41.7954811316429" cy="-258.2543652384325" r="2.6440000534057617" transform="matrix(0.46701976237033327,0,0,0.46701976237033327,35.32980282168142,126.63273306877483) " stroke-width="0" id="svg_13"/><circle cx="-19.784483359426094" cy="-254.06636360574208" r="2.6440000534057617" transform="matrix(0.46701976237033327,0,0,0.46701976237033327,35.32980282168142,126.63273306877483) " stroke-width="0" id="svg_14"/><circle cx="-29.479483054250316" cy="-258.2543652384325" r="2.6440000534057617" transform="matrix(0.46701976237033327,0,0,0.46701976237033327,35.32980282168142,126.63273306877483) " stroke-width="0" id="svg_15"/><path d="M12.517530768197645,29.096419605511215 a1.2348002517071612,1.2348002517071612 0 0 0 -2.4700675231766924,0 a1.2348002517071612,1.2348002517071612 0 1 0 2.4700675231766924,0 z" stroke-width="0" id="svg_16"/><circle cx="-41.7954811316429" cy="-204.65736130166493" r="2.6440000534057617" transform="matrix(0.46701976237033327,0,0,0.46701976237033327,35.32980282168142,126.63273306877483) " stroke-width="0" id="svg_17"/><path d="M24.855725870259477,29.096419605511215 a1.2343332319447908,1.2343332319447908 0 0 1 2.4696005034143225,0 a1.2343332319447908,1.2343332319447908 0 1 1 -2.4696005034143225,0 z" stroke-width="0" id="svg_18"/><circle cx="-29.479483054250316" cy="-204.65736130166493" r="2.6440000534057617" transform="matrix(0.46701976237033327,0,0,0.46701976237033327,35.32980282168142,126.63273306877483) " stroke-width="0" id="svg_19"/><circle cx="-44.61848299321517" cy="-226.04436615395986" r="2.6449999809265137" transform="matrix(0.46701976237033327,0,0,0.46701976237033327,35.32980282168142,126.63273306877483) " stroke-width="0" id="svg_20"/><circle cx="-35.64948122319563" cy="-220.86636475015126" r="2.6449999809265137" transform="matrix(0.46701976237033327,0,0,0.46701976237033327,35.32980282168142,126.63273306877483) " stroke-width="0" id="svg_21"/><circle cx="-35.64948122319563" cy="-242.13836410928212" r="2.6449999809265137" transform="matrix(0.46701976237033327,0,0,0.46701976237033327,35.32980282168142,126.63273306877483) " stroke-width="0" id="svg_22"/><circle cx="-26.681482718556957" cy="-226.04436615395986" r="2.6449999809265137" transform="matrix(0.46701976237033327,0,0,0.46701976237033327,35.32980282168142,126.63273306877483) " stroke-width="0" id="svg_23"/><circle cx="-26.680479453176098" cy="-236.39936569619618" r="2.6440000534057617" transform="matrix(0.46701976237033327,0,0,0.46701976237033327,35.32980282168142,126.63273306877483) " stroke-width="0" id="svg_24"/><path d="M17.4455233007294,36.09284266558117 a1.2352672714695314,1.2352672714695314 0 0 0 2.4705345429390633,0 h-2.4705345429390633 z" stroke-width="0" id="svg_25"/><circle cx="-63.038481162160494" cy="-237.2913639872118" r="2.6440000534057617" transform="matrix(0.46701976237033327,0,0,0.46701976237033327,35.32980282168142,126.63273306877483) " stroke-width="0" id="svg_26"/><path d="M35.85170617526897,21.96923101197757 l-0.9924169950369576,-0.26526722502634925 c0.1858738654233927,-0.9905489159874769 0.2876841736201253,-2.0119211362913956 0.2876841736201253,-3.055710305189091 c0,-1.0451902281848058 -0.1018103081967326,-2.0660954287263547 -0.2876841736201253,-3.0571113644762016 l0.9919499752745884,-0.2662012645510899 a1.2352672714695314,1.2352672714695314 0 0 0 -0.638883034922616,-2.385536946187662 l-0.9905489159874769,0.26526722502634925 a16.44610093187129,16.44610093187129 0 0 0 -3.0608475225751643,-5.2918009274182465 l0.72855082929772,-0.72855082929772 a1.2348002517071612,1.2348002517071612 0 1 0 -1.7466539112650468,-1.7461868915026761 l-0.72855082929772,0.72855082929772 a16.441430734247582,16.441430734247582 0 0 0 -5.291333907655876,-3.0599134830504235 l0.26526722502634925,-0.9910159357498469 a1.2348002517071612,1.2348002517071612 0 1 0 -2.385536946187662,-0.6393500546849867 l-0.26573424478871954,0.9928840147993285 a16.54931229935513,16.54931229935513 0 0 0 -3.055710305189091,-0.2876841736201253 c-1.0451902281848058,0 -2.0660954287263547,0.1018103081967326 -3.0571113644762016,0.28815119338249584 l-0.2662012645510899,-0.9928840147993285 a1.2343332319447908,1.2343332319447908 0 0 0 -1.5122099905551392,-0.8733269556325235 a1.2343332319447908,1.2343332319447908 0 0 0 -0.8733269556325235,1.5122099905551392 l0.26573424478871954,0.9914829555122172 a16.45310622830684,16.45310622830684 0 0 0 -5.2918009274182465,3.060380502812794 l-0.72855082929772,-0.72855082929772 a1.2352672714695314,1.2352672714695314 0 0 0 -1.7466539112650468,1.7461868915026761 l0.7290178490600905,0.7290178490600905 a16.43676053662388,16.43676053662388 0 0 0 -3.0599134830504235,5.291333907655876 l-0.9910159357498469,-0.26526722502634925 a1.2338662121824209,1.2338662121824209 0 0 0 -1.5122099905551392,0.8733269556325235 a1.2362013109942722,1.2362013109942722 0 0 0 0.8728599358701532,1.5131440300798804 l0.9928840147993285,0.26573424478871954 a16.55071335864224,16.55071335864224 0 0 0 -0.2876841736201253,3.056177324951461 c0,1.0442561886600652 0.1018103081967326,2.0656284089639843 0.2876841736201253,3.056644344713831 l-0.9924169950369576,0.26526722502634925 a1.2338662121824209,1.2338662121824209 0 0 0 -0.8733269556325235,1.5122099905551392 a1.2357342912319018,1.2357342912319018 0 0 0 1.5122099905551392,0.873793975394894 l0.9910159357498469,-0.26526722502634925 a16.45404026783158,16.45404026783158 0 0 0 3.060380502812794,5.290866887893506 l-0.72855082929772,0.7294848688224603 a1.231998133132939,1.231998133132939 0 0 0 0,1.7452528519779356 a1.2348002517071612,1.2348002517071612 0 0 0 1.7466539112650468,0.0009340395247406669 l0.72855082929772,-0.7290178490600905 a16.468984900227433,16.468984900227433 0 0 0 5.2918009274182465,3.060380502812794 l-0.26526722502634925,0.9900818962251068 a1.2329321726576798,1.2329321726576798 0 0 0 0.8728599358701532,1.5122099905551392 a1.2362013109942722,1.2362013109942722 0 0 0 1.5131440300798804,-0.8723929161077828 l0.26573424478871954,-0.9938180543240692 c0.9910159357498469,0.18680790494813337 2.0114541165290256,0.28815119338249584 3.056177324951461,0.28815119338249584 s2.0660954287263547,-0.10134328843436233 3.056177324951461,-0.28815119338249584 l0.2662012645510899,0.9933510345616987 a1.2343332319447908,1.2343332319447908 0 1 0 2.385536946187662,-0.6393500546849867 l-0.26526722502634925,-0.9910159357498469 a16.447501991158397,16.447501991158397 0 0 0 5.2918009274182465,-3.0599134830504235 l0.7280838095353497,0.7276167897729791 a1.2338662121824209,1.2338662121824209 0 0 0 1.7466539112650468,0.0009340395247406669 a1.2362013109942722,1.2362013109942722 0 0 0 0,-1.7471209310274167 l-0.7290178490600905,-0.7276167897729791 a16.431156299475436,16.431156299475436 0 0 0 3.0608475225751643,-5.292267947180617 l0.9905489159874769,0.26526722502634925 a1.2343332319447908,1.2343332319447908 0 1 0 0.6384160151602455,-2.3860039659500325 zM32.0842577522275,24.961426629484293 a1.2352672714695314,1.2352672714695314 0 1 0 -1.2390034295684942,2.134747333794793 c-2.4579250093550638,3.5288013244702383 -6.408912199008084,5.940958397113009 -10.93106455804002,6.3159752662963875 a1.2348002517071612,1.2348002517071612 0 0 0 -0.6159990665664699,-1.0643380384419894 a1.2348002517071612,1.2348002517071612 0 0 0 -1.8517333577983717,1.06480505820436 c-4.522152359031937,-0.37548388894574825 -8.473139548684957,-2.7876409615885196 -10.93106455804002,-6.3159752662963875 a1.2338662121824209,1.2338662121824209 0 1 0 -1.2385364098061238,-2.134747333794793 a14.729803305160312,14.729803305160312 0 0 1 -1.4160039195068506,-6.313173147722165 c0,-2.257573531298191 0.5095185607460331,-4.3974580824790594 1.4160039195068506,-6.314107187246906 a1.2343332319447908,1.2343332319447908 0 1 0 1.2380693900437536,-2.135214353557164 c2.4583920291174346,-3.5288013244702383 6.409379218770454,-5.940491377350639 10.93106455804002,-6.315041226771647 a1.2338662121824209,1.2338662121824209 0 0 0 2.4681994441272113,-0.0004670197623703334 c4.522619378794308,0.3750168691833779 8.473139548684957,2.7867069220637792 10.93059753827765,6.315508246534017 a1.2338662121824209,1.2338662121824209 0 0 0 1.2390034295684942,2.134280314032423 A14.72886926563557,14.72886926563557 0 0 1 33.49979465197197,18.647786461999743 A14.715792712289202,14.715792712289202 0 0 1 32.0842577522275,24.961426629484293 z" stroke-width="0" id="svg_27"/><path d="M28.47326094958008,33.138008629064075 a1.2352672714695314,1.2352672714695314 0 0 1 -2.1389505116561263,1.2357342912319018 l2.1389505116561263,-1.2357342912319018 zM34.40721405025754,26.300372288200037 a1.2348002517071612,1.2348002517071612 0 1 1 -1.2348002517071612,2.139884551180867 l1.2348002517071612,-2.139884551180867 zM36.12631379554273,17.412986210292587 A1.2338662121824209,1.2338662121824209 0 0 1 37.36158106701227,18.647319442237375 a1.2362013109942722,1.2362013109942722 0 0 1 -1.2352672714695314,1.2357342912319018 v-2.4700675231766924 zM33.171946778788,8.855316084618607 a1.2348002517071612,1.2348002517071612 0 1 1 1.2348002517071612,2.1389505116561263 l-1.2348002517071612,-2.1389505116561263 zM26.33431043792396,2.921830003703519 a1.2357342912319018,1.2357342912319018 0 0 1 1.6873424014440146,-0.4520751299744828 a1.2357342912319018,1.2357342912319018 0 0 1 0.4520751299744828,1.6868753816816437 l-2.139417531418497,-1.2348002517071612 zM17.4455233007294,1.201796218893577 a1.2357342912319018,1.2357342912319018 0 0 1 2.4705345429390633,0 h-2.4705345429390633 zM8.888320194817787,4.1566302554106755 a1.2352672714695314,1.2352672714695314 0 0 1 2.1389505116561263,-1.2348002517071612 l-2.1389505116561263,1.2348002517071612 zM2.954834113902699,10.994266596274741 a1.2352672714695314,1.2352672714695314 0 0 1 1.2348002517071612,-2.139417531418497 l-1.2348002517071612,2.139417531418497 zM1.2348003290927636,19.88211969394456 A1.2348002517071612,1.2348002517071612 0 0 1 7.738560015013718e-8,18.647786461999743 a1.2362013109942722,1.2362013109942722 0 0 1 1.2348002517071612,-1.2357342912319018 v2.4700675231766924 zM4.189167345847494,28.440256839380908 a1.2348002517071612,1.2348002517071612 0 0 1 -1.6864083619192736,-0.4530091694992233 a1.2357342912319018,1.2357342912319018 0 0 1 0.4520751299744828,-1.6868753816816437 l1.2343332319447908,2.139884551180867 zM8.887853175055412,33.138008629064075 A1.2362013109942722,1.2362013109942722 0 0 0 9.340395324792269,34.8253510305081 a1.2343332319447908,1.2343332319447908 0 0 0 1.6864083619192736,-0.451141090449742 l-2.1389505116561263,-1.2362013109942722 z" stroke-width="0" id="svg_28"/></g></g></svg>