<svg data-v-423bf9ae="" xmlns="http://www.w3.org/2000/svg" viewBox="0 0 520 90" class="iconLeft"><!----><!----><!----><g data-v-423bf9ae="" id="c89ef1bd-cfcf-49aa-a4da-4d106dc26273" fill="white" transform="matrix(5.415162492161021,0,0,5.415162492161021,107.5897913951033,3.194944213494985)"><path d="M3.46 12.08L3.46 12.08L3.46 12.08Q5.59 12.08 5.59 10.63L5.59 10.63L5.59 10.63Q5.59 10.18 5.40 9.86L5.40 9.86L5.40 9.86Q5.21 9.55 4.89 9.32L4.89 9.32L4.89 9.32Q4.56 9.09 4.15 8.92L4.15 8.92L4.15 8.92Q3.74 8.75 3.28 8.58L3.28 8.58L3.28 8.58Q2.74 8.40 2.27 8.17L2.27 8.17L2.27 8.17Q1.79 7.94 1.44 7.62L1.44 7.62L1.44 7.62Q1.09 7.31 0.89 6.87L0.89 6.87L0.89 6.87Q0.69 6.44 0.69 5.82L0.69 5.82L0.69 5.82Q0.69 4.55 1.55 3.84L1.55 3.84L1.55 3.84Q2.42 3.12 3.95 3.12L3.95 3.12L3.95 3.12Q4.83 3.12 5.55 3.31L5.55 3.31L5.55 3.31Q6.27 3.50 6.61 3.72L6.61 3.72L6.17 4.83L6.17 4.83Q5.88 4.65 5.30 4.47L5.30 4.47L5.30 4.47Q4.72 4.30 3.95 4.30L3.95 4.30L3.95 4.30Q3.56 4.30 3.22 4.38L3.22 4.38L3.22 4.38Q2.88 4.47 2.63 4.63L2.63 4.63L2.63 4.63Q2.38 4.80 2.23 5.06L2.23 5.06L2.23 5.06Q2.09 5.32 2.09 5.67L2.09 5.67L2.09 5.67Q2.09 6.06 2.24 6.33L2.24 6.33L2.24 6.33Q2.39 6.59 2.67 6.80L2.67 6.80L2.67 6.80Q2.95 7 3.33 7.17L3.33 7.17L3.33 7.17Q3.70 7.34 4.14 7.50L4.14 7.50L4.14 7.50Q4.77 7.76 5.30 8.01L5.30 8.01L5.30 8.01Q5.82 8.26 6.21 8.61L6.21 8.61L6.21 8.61Q6.59 8.96 6.80 9.44L6.80 9.44L6.80 9.44Q7.01 9.93 7.01 10.61L7.01 10.61L7.01 10.61Q7.01 11.89 6.08 12.57L6.08 12.57L6.08 12.57Q5.15 13.26 3.46 13.26L3.46 13.26L3.46 13.26Q2.88 13.26 2.40 13.18L2.40 13.18L2.40 13.18Q1.92 13.10 1.54 13.00L1.54 13.00L1.54 13.00Q1.16 12.89 0.89 12.78L0.89 12.78L0.89 12.78Q0.62 12.66 0.46 12.57L0.46 12.57L0.87 11.45L0.87 11.45Q1.19 11.63 1.85 11.86L1.85 11.86L1.85 11.86Q2.51 12.08 3.46 12.08ZM9.79 3.51L9.79 5.77L12.54 5.77L12.54 6.86L9.79 6.86L9.79 10.22L9.79 10.22Q9.79 10.77 9.87 11.12L9.87 11.12L9.87 11.12Q9.95 11.48 10.12 11.68L10.12 11.68L10.12 11.68Q10.29 11.89 10.54 11.97L10.54 11.97L10.54 11.97Q10.79 12.05 11.13 12.05L11.13 12.05L11.13 12.05Q11.72 12.05 12.07 11.92L12.07 11.92L12.07 11.92Q12.43 11.79 12.57 11.73L12.57 11.73L12.82 12.81L12.82 12.81Q12.63 12.91 12.14 13.05L12.14 13.05L12.14 13.05Q11.65 13.20 11.02 13.20L11.02 13.20L11.02 13.20Q10.28 13.20 9.79 13.01L9.79 13.01L9.79 13.01Q9.31 12.82 9.02 12.45L9.02 12.45L9.02 12.45Q8.72 12.07 8.60 11.52L8.60 11.52L8.60 11.52Q8.48 10.96 8.48 10.23L8.48 10.23L8.48 3.74L9.79 3.51ZM16.66 12.11L16.66 12.11L16.66 12.11Q17.12 12.11 17.48 12.09L17.48 12.09L17.48 12.09Q17.84 12.07 18.07 12.01L18.07 12.01L18.07 9.84L18.07 9.84Q17.93 9.77 17.62 9.72L17.62 9.72L17.62 9.72Q17.30 9.67 16.86 9.67L16.86 9.67L16.86 9.67Q16.56 9.67 16.23 9.72L16.23 9.72L16.23 9.72Q15.90 9.76 15.63 9.89L15.63 9.89L15.63 9.89Q15.36 10.02 15.18 10.25L15.18 10.25L15.18 10.25Q14.99 10.49 14.99 10.86L14.99 10.86L14.99 10.86Q14.99 11.56 15.44 11.84L15.44 11.84L15.44 11.84Q15.89 12.11 16.66 12.11ZM16.55 5.59L16.55 5.59L16.55 5.59Q17.33 5.59 17.87 5.79L17.87 5.79L17.87 5.79Q18.41 5.99 18.74 6.36L18.74 6.36L18.74 6.36Q19.07 6.73 19.21 7.25L19.21 7.25L19.21 7.25Q19.35 7.76 19.35 8.37L19.35 8.37L19.35 12.92L19.35 12.92Q19.18 12.95 18.88 13.00L18.88 13.00L18.88 13.00Q18.58 13.05 18.20 13.09L18.20 13.09L18.20 13.09Q17.82 13.13 17.38 13.17L17.38 13.17L17.38 13.17Q16.94 13.20 16.51 13.20L16.51 13.20L16.51 13.20Q15.89 13.20 15.37 13.08L15.37 13.08L15.37 13.08Q14.85 12.95 14.48 12.68L14.48 12.68L14.48 12.68Q14.10 12.40 13.89 11.96L13.89 11.96L13.89 11.96Q13.68 11.51 13.68 10.88L13.68 10.88L13.68 10.88Q13.68 10.28 13.92 9.84L13.92 9.84L13.92 9.84Q14.17 9.41 14.59 9.14L14.59 9.14L14.59 9.14Q15.01 8.88 15.57 8.75L15.57 8.75L15.57 8.75Q16.13 8.62 16.74 8.62L16.74 8.62L16.74 8.62Q16.94 8.62 17.15 8.64L17.15 8.64L17.15 8.64Q17.36 8.67 17.55 8.70L17.55 8.70L17.55 8.70Q17.74 8.74 17.88 8.76L17.88 8.76L17.88 8.76Q18.02 8.79 18.07 8.81L18.07 8.81L18.07 8.44L18.07 8.44Q18.07 8.12 18.00 7.80L18.00 7.80L18.00 7.80Q17.93 7.49 17.75 7.25L17.75 7.25L17.75 7.25Q17.57 7 17.26 6.85L17.26 6.85L17.26 6.85Q16.94 6.71 16.44 6.71L16.44 6.71L16.44 6.71Q15.79 6.71 15.31 6.80L15.31 6.80L15.31 6.80Q14.83 6.89 14.59 6.99L14.59 6.99L14.43 5.91L14.43 5.91Q14.69 5.80 15.27 5.69L15.27 5.69L15.27 5.69Q15.86 5.59 16.55 5.59ZM22.72 3.51L22.72 5.77L25.48 5.77L25.48 6.86L22.72 6.86L22.72 10.22L22.72 10.22Q22.72 10.77 22.81 11.12L22.81 11.12L22.81 11.12Q22.89 11.48 23.06 11.68L23.06 11.68L23.06 11.68Q23.23 11.89 23.48 11.97L23.48 11.97L23.48 11.97Q23.73 12.05 24.07 12.05L24.07 12.05L24.07 12.05Q24.65 12.05 25.01 11.92L25.01 11.92L25.01 11.92Q25.37 11.79 25.51 11.73L25.51 11.73L25.76 12.81L25.76 12.81Q25.56 12.91 25.07 13.05L25.07 13.05L25.07 13.05Q24.58 13.20 23.95 13.20L23.95 13.20L23.95 13.20Q23.21 13.20 22.73 13.01L22.73 13.01L22.73 13.01Q22.25 12.82 21.95 12.45L21.95 12.45L21.95 12.45Q21.66 12.07 21.54 11.52L21.54 11.52L21.54 11.52Q21.42 10.96 21.42 10.23L21.42 10.23L21.42 3.74L22.72 3.51ZM32.93 5.77L32.93 12.84L32.93 12.84Q32.48 12.95 31.75 13.08L31.75 13.08L31.75 13.08Q31.01 13.20 30.04 13.20L30.04 13.20L30.04 13.20Q29.20 13.20 28.63 12.96L28.63 12.96L28.63 12.96Q28.06 12.71 27.71 12.26L27.71 12.26L27.71 12.26Q27.36 11.82 27.20 11.21L27.20 11.21L27.20 11.21Q27.05 10.60 27.05 9.86L27.05 9.86L27.05 5.77L28.35 5.77L28.35 9.58L28.35 9.58Q28.35 10.91 28.77 11.48L28.77 11.48L28.77 11.48Q29.19 12.05 30.18 12.05L30.18 12.05L30.18 12.05Q30.39 12.05 30.62 12.04L30.62 12.04L30.62 12.04Q30.84 12.03 31.04 12.01L31.04 12.01L31.04 12.01Q31.23 11.98 31.39 11.96L31.39 11.96L31.39 11.96Q31.56 11.94 31.63 11.91L31.63 11.91L31.63 5.77L32.93 5.77ZM36.86 12.11L36.86 12.11L36.86 12.11Q37.66 12.11 38.05 11.90L38.05 11.90L38.05 11.90Q38.43 11.69 38.43 11.23L38.43 11.23L38.43 11.23Q38.43 10.75 38.05 10.47L38.05 10.47L38.05 10.47Q37.67 10.19 36.81 9.84L36.81 9.84L36.81 9.84Q36.39 9.67 36.00 9.50L36.00 9.50L36.00 9.50Q35.62 9.32 35.34 9.09L35.34 9.09L35.34 9.09Q35.06 8.85 34.89 8.51L34.89 8.51L34.89 8.51Q34.72 8.18 34.72 7.69L34.72 7.69L34.72 7.69Q34.72 6.72 35.43 6.15L35.43 6.15L35.43 6.15Q36.15 5.59 37.38 5.59L37.38 5.59L37.38 5.59Q37.69 5.59 38.00 5.62L38.00 5.62L38.00 5.62Q38.30 5.66 38.57 5.71L38.57 5.71L38.57 5.71Q38.84 5.75 39.04 5.81L39.04 5.81L39.04 5.81Q39.24 5.87 39.35 5.91L39.35 5.91L39.12 7.03L39.12 7.03Q38.91 6.92 38.46 6.80L38.46 6.80L38.46 6.80Q38.01 6.68 37.38 6.68L37.38 6.68L37.38 6.68Q36.83 6.68 36.43 6.89L36.43 6.89L36.43 6.89Q36.02 7.11 36.02 7.57L36.02 7.57L36.02 7.57Q36.02 7.81 36.11 7.99L36.11 7.99L36.11 7.99Q36.20 8.18 36.39 8.32L36.39 8.32L36.39 8.32Q36.58 8.47 36.86 8.60L36.86 8.60L36.86 8.60Q37.14 8.72 37.53 8.86L37.53 8.86L37.53 8.86Q38.05 9.06 38.46 9.25L38.46 9.25L38.46 9.25Q38.86 9.44 39.15 9.69L39.15 9.69L39.15 9.69Q39.44 9.94 39.59 10.30L39.59 10.30L39.59 10.30Q39.75 10.65 39.75 11.17L39.75 11.17L39.75 11.17Q39.75 12.18 39.00 12.70L39.00 12.70L39.00 12.70Q38.25 13.22 36.86 13.22L36.86 13.22L36.86 13.22Q35.90 13.22 35.35 13.05L35.35 13.05L35.35 13.05Q34.80 12.89 34.61 12.81L34.61 12.81L34.85 11.69L34.85 11.69Q35.07 11.77 35.56 11.94L35.56 11.94L35.56 11.94Q36.05 12.11 36.86 12.11ZM47.81 13.22L47.81 13.22L47.81 13.22Q46.93 13.22 46.26 12.94L46.26 12.94L46.26 12.94Q45.60 12.66 45.14 12.15L45.14 12.15L45.14 12.15Q44.69 11.65 44.46 10.96L44.46 10.96L44.46 10.96Q44.24 10.26 44.24 9.42L44.24 9.42L44.24 9.42Q44.24 8.58 44.49 7.88L44.49 7.88L44.49 7.88Q44.73 7.18 45.18 6.67L45.18 6.67L45.18 6.67Q45.63 6.16 46.28 5.87L46.28 5.87L46.28 5.87Q46.93 5.59 47.73 5.59L47.73 5.59L47.73 5.59Q48.22 5.59 48.71 5.67L48.71 5.67L48.71 5.67Q49.20 5.75 49.64 5.94L49.64 5.94L49.35 7.04L49.35 7.04Q49.06 6.90 48.67 6.82L48.67 6.82L48.67 6.82Q48.29 6.73 47.85 6.73L47.85 6.73L47.85 6.73Q46.76 6.73 46.18 7.42L46.18 7.42L46.18 7.42Q45.60 8.11 45.60 9.42L45.60 9.42L45.60 9.42Q45.60 10.01 45.73 10.50L45.73 10.50L45.73 10.50Q45.86 10.99 46.15 11.34L46.15 11.34L46.15 11.34Q46.44 11.69 46.89 11.88L46.89 11.88L46.89 11.88Q47.33 12.07 47.98 12.07L47.98 12.07L47.98 12.07Q48.50 12.07 48.92 11.97L48.92 11.97L48.92 11.97Q49.34 11.87 49.57 11.76L49.57 11.76L49.76 12.85L49.76 12.85Q49.64 12.92 49.43 12.98L49.43 12.98L49.43 12.98Q49.22 13.05 48.96 13.10L48.96 13.10L48.96 13.10Q48.69 13.15 48.39 13.18L48.39 13.18L48.39 13.18Q48.09 13.22 47.81 13.22ZM57.58 9.41L57.58 9.41L57.58 9.41Q57.58 10.28 57.33 10.98L57.33 10.98L57.33 10.98Q57.08 11.68 56.62 12.18L56.62 12.18L56.62 12.18Q56.17 12.68 55.54 12.96L55.54 12.96L55.54 12.96Q54.91 13.23 54.17 13.23L54.17 13.23L54.17 13.23Q53.42 13.23 52.79 12.96L52.79 12.96L52.79 12.96Q52.16 12.68 51.71 12.18L51.71 12.18L51.71 12.18Q51.25 11.68 51.00 10.98L51.00 10.98L51.00 10.98Q50.75 10.28 50.75 9.41L50.75 9.41L50.75 9.41Q50.75 8.55 51.00 7.85L51.00 7.85L51.00 7.85Q51.25 7.14 51.71 6.64L51.71 6.64L51.71 6.64Q52.16 6.13 52.79 5.86L52.79 5.86L52.79 5.86Q53.42 5.59 54.17 5.59L54.17 5.59L54.17 5.59Q54.91 5.59 55.54 5.86L55.54 5.86L55.54 5.86Q56.17 6.13 56.62 6.64L56.62 6.64L56.62 6.64Q57.08 7.14 57.33 7.85L57.33 7.85L57.33 7.85Q57.58 8.55 57.58 9.41ZM56.22 9.41L56.22 9.41L56.22 9.41Q56.22 8.18 55.67 7.46L55.67 7.46L55.67 7.46Q55.12 6.73 54.17 6.73L54.17 6.73L54.17 6.73Q53.21 6.73 52.66 7.46L52.66 7.46L52.66 7.46Q52.11 8.18 52.11 9.41L52.11 9.41L52.11 9.41Q52.11 10.64 52.66 11.36L52.66 11.36L52.66 11.36Q53.21 12.08 54.17 12.08L54.17 12.08L54.17 12.08Q55.12 12.08 55.67 11.36L55.67 11.36L55.67 11.36Q56.22 10.64 56.22 9.41ZM63.76 5.77L65.10 5.77L65.10 5.77Q64.55 7.81 63.82 9.69L63.82 9.69L63.82 9.69Q63.08 11.56 62.40 13.05L62.40 13.05L61.22 13.05L61.22 13.05Q60.54 11.56 59.80 9.69L59.80 9.69L59.80 9.69Q59.07 7.81 58.52 5.77L58.52 5.77L59.92 5.77L59.92 5.77Q60.09 6.45 60.32 7.23L60.32 7.23L60.32 7.23Q60.55 8.01 60.81 8.77L60.81 8.77L60.81 8.77Q61.07 9.53 61.33 10.25L61.33 10.25L61.33 10.25Q61.60 10.96 61.84 11.52L61.84 11.52L61.84 11.52Q62.08 10.96 62.34 10.25L62.34 10.25L62.34 10.25Q62.61 9.53 62.87 8.77L62.87 8.77L62.87 8.77Q63.13 8.01 63.36 7.23L63.36 7.23L63.36 7.23Q63.59 6.45 63.76 5.77L63.76 5.77ZM67.75 5.77L67.75 13.05L66.44 13.05L66.44 5.77L67.75 5.77ZM67.09 4.45L67.09 4.45L67.09 4.45Q66.74 4.45 66.49 4.22L66.49 4.22L66.49 4.22Q66.25 3.99 66.25 3.60L66.25 3.60L66.25 3.60Q66.25 3.21 66.49 2.97L66.49 2.97L66.49 2.97Q66.74 2.74 67.09 2.74L67.09 2.74L67.09 2.74Q67.44 2.74 67.68 2.97L67.68 2.97L67.68 2.97Q67.93 3.21 67.93 3.60L67.93 3.60L67.93 3.60Q67.93 3.99 67.68 4.22L67.68 4.22L67.68 4.22Q67.44 4.45 67.09 4.45ZM74.69 11.91L74.69 7.31L74.69 7.31Q74.45 7.11 74.00 6.93L74.00 6.93L74.00 6.93Q73.56 6.75 73.02 6.75L73.02 6.75L73.02 6.75Q72.46 6.75 72.06 6.95L72.06 6.95L72.06 6.95Q71.67 7.15 71.41 7.51L71.41 7.51L71.41 7.51Q71.16 7.87 71.05 8.36L71.05 8.36L71.05 8.36Q70.94 8.85 70.94 9.41L70.94 9.41L70.94 9.41Q70.94 10.68 71.57 11.38L71.57 11.38L71.57 11.38Q72.20 12.07 73.25 12.07L73.25 12.07L73.25 12.07Q73.78 12.07 74.14 12.02L74.14 12.02L74.14 12.02Q74.49 11.97 74.69 11.91L74.69 11.91ZM74.69 6.09L74.69 2.41L75.99 2.18L75.99 12.84L75.99 12.84Q75.54 12.96 74.84 13.09L74.84 13.09L74.84 13.09Q74.14 13.22 73.23 13.22L73.23 13.22L73.23 13.22Q72.39 13.22 71.72 12.95L71.72 12.95L71.72 12.95Q71.05 12.68 70.57 12.19L70.57 12.19L70.57 12.19Q70.10 11.70 69.84 11.00L69.84 11.00L69.84 11.00Q69.58 10.29 69.58 9.41L69.58 9.41L69.58 9.41Q69.58 8.57 69.80 7.87L69.80 7.87L69.80 7.87Q70.01 7.17 70.43 6.66L70.43 6.66L70.43 6.66Q70.85 6.16 71.46 5.88L71.46 5.88L71.46 5.88Q72.07 5.60 72.86 5.60L72.86 5.60L72.86 5.60Q73.49 5.60 73.97 5.77L73.97 5.77L73.97 5.77Q74.45 5.94 74.69 6.09L74.69 6.09Z"></path></g><!----><g data-v-423bf9ae="" id="f5a8d785-54d6-4aa4-aae3-57227db6aedc" transform="matrix(1.126009415484004,0,0,1.126009415484004,-10.300474949413292,-11.269004904426275)" stroke="none" fill="white"><circle cx="41.031" cy="44.822" r="2.644"></circle><circle cx="22.611" cy="55.954" r="2.645"></circle><circle cx="77.39" cy="43.93" r="2.644"></circle><circle cx="77.39" cy="55.954" r="2.645"></circle><circle cx="40.135" cy="67.085" r="2.644"></circle><circle cx="59.865" cy="67.085" r="2.645"></circle><path d="M68.407 52.289a2.644 2.644 0 1 1 2.644-4.579 2.644 2.644 0 0 1-2.644 4.579zM29.257 52.289a2.644 2.644 0 1 1 2.644-4.579 2.644 2.644 0 0 1-2.644 4.579z"></path><circle cx="59.864" cy="32.914" r="2.644"></circle><circle cx="40.135" cy="32.914" r="2.644"></circle><circle cx="34.159" cy="27.155" r="2.644"></circle><circle cx="43.854" cy="22.967" r="2.644"></circle><circle cx="65.865" cy="27.155" r="2.644"></circle><circle cx="56.17" cy="22.967" r="2.644"></circle><path d="M36.803 72.373a2.644 2.644 0 0 0-5.289 0 2.644 2.644 0 1 0 5.289 0z"></path><circle cx="43.854" cy="76.564" r="2.644"></circle><path d="M63.222 72.373a2.643 2.643 0 0 1 5.288 0 2.643 2.643 0 1 1-5.288 0z"></path><circle cx="56.17" cy="76.564" r="2.644"></circle><circle cx="41.031" cy="55.177" r="2.645"></circle><circle cx="50" cy="60.355" r="2.645"></circle><circle cx="50" cy="39.083" r="2.645"></circle><circle cx="58.968" cy="55.177" r="2.645"></circle><circle cx="58.969" cy="44.822" r="2.644"></circle><path d="M47.355 87.354a2.645 2.645 0 0 0 5.29 0h-5.29z"></path><circle cx="22.611" cy="43.93" r="2.644"></circle><path d="M86.767 57.112l-2.125-.568c.398-2.121.616-4.308.616-6.543 0-2.238-.218-4.424-.616-6.546l2.124-.57a2.645 2.645 0 0 0-1.368-5.108l-2.121.568a35.215 35.215 0 0 0-6.554-11.331l1.56-1.56a2.644 2.644 0 1 0-3.74-3.739l-1.56 1.56a35.205 35.205 0 0 0-11.33-6.552l.568-2.122a2.644 2.644 0 1 0-5.108-1.369l-.569 2.126a35.436 35.436 0 0 0-6.543-.616c-2.238 0-4.424.218-6.546.617l-.57-2.126a2.643 2.643 0 0 0-3.238-1.87 2.643 2.643 0 0 0-1.87 3.238l.569 2.123a35.23 35.23 0 0 0-11.331 6.553l-1.56-1.56a2.645 2.645 0 0 0-3.74 3.739l1.561 1.561a35.195 35.195 0 0 0-6.552 11.33l-2.122-.568a2.642 2.642 0 0 0-3.238 1.87 2.647 2.647 0 0 0 1.869 3.24l2.126.569a35.439 35.439 0 0 0-.616 6.544c0 2.236.218 4.423.616 6.545l-2.125.568a2.642 2.642 0 0 0-1.87 3.238 2.646 2.646 0 0 0 3.238 1.871l2.122-.568a35.232 35.232 0 0 0 6.553 11.329l-1.56 1.562a2.638 2.638 0 0 0 0 3.737 2.644 2.644 0 0 0 3.74.002l1.56-1.561a35.264 35.264 0 0 0 11.331 6.553l-.568 2.12a2.64 2.64 0 0 0 1.869 3.238 2.647 2.647 0 0 0 3.24-1.868l.569-2.128c2.122.4 4.307.617 6.544.617s4.424-.217 6.544-.617l.57 2.127a2.643 2.643 0 1 0 5.108-1.369l-.568-2.122a35.218 35.218 0 0 0 11.331-6.552l1.559 1.558a2.642 2.642 0 0 0 3.74.002 2.647 2.647 0 0 0 0-3.741l-1.561-1.558a35.183 35.183 0 0 0 6.554-11.332l2.121.568a2.643 2.643 0 1 0 1.367-5.109zM78.7 63.519a2.645 2.645 0 1 0-2.653 4.571c-5.263 7.556-13.723 12.721-23.406 13.524a2.644 2.644 0 0 0-1.319-2.279 2.644 2.644 0 0 0-3.965 2.28c-9.683-.804-18.143-5.969-23.406-13.524a2.642 2.642 0 1 0-2.652-4.571 31.54 31.54 0 0 1-3.032-13.518c0-4.834 1.091-9.416 3.032-13.52a2.643 2.643 0 1 0 2.651-4.572c5.264-7.556 13.724-12.72 23.406-13.522a2.642 2.642 0 0 0 5.285-.001c9.684.803 18.143 5.967 23.405 13.523a2.642 2.642 0 0 0 2.653 4.57A31.538 31.538 0 0 1 81.731 50 31.51 31.51 0 0 1 78.7 63.519z"></path><path d="M70.968 81.027a2.645 2.645 0 0 1-4.58 2.646l4.58-2.646zM83.674 66.386a2.644 2.644 0 1 1-2.644 4.582l2.644-4.582zM87.355 47.356A2.642 2.642 0 0 1 90 49.999a2.647 2.647 0 0 1-2.645 2.646v-5.289zM81.029 29.032a2.644 2.644 0 1 1 2.644 4.58l-2.644-4.58zM66.388 16.327a2.646 2.646 0 0 1 3.613-.968 2.646 2.646 0 0 1 .968 3.612l-4.581-2.644zM47.355 12.644a2.646 2.646 0 0 1 5.29 0h-5.29zM29.032 18.971a2.645 2.645 0 0 1 4.58-2.644l-4.58 2.644zM16.327 33.612a2.645 2.645 0 0 1 2.644-4.581l-2.644 4.581zM12.644 52.643A2.644 2.644 0 0 1 10 50a2.647 2.647 0 0 1 2.644-2.646v5.289zM18.97 70.968a2.644 2.644 0 0 1-3.611-.97 2.646 2.646 0 0 1 .968-3.612l2.643 4.582zM29.031 81.027A2.647 2.647 0 0 0 30 84.64a2.643 2.643 0 0 0 3.611-.966l-4.58-2.647z"></path></g><!----></svg>