<svg xmlns="http://www.w3.org/2000/svg" data-v-fde0c5aa="" width="220" height="220" style=""><rect id="backgroundrect" width="100%" height="100%" x="0" y="0" fill="none" stroke="none" class="" style=""/><!----><defs data-v-fde0c5aa=""><!----></defs><!----><defs data-v-fde0c5aa=""><!----></defs><!----><g class="currentLayer" style=""><title>Layer 1</title><g data-v-fde0c5aa="" id="b91760c1-2221-4e70-95c2-a1fddc44c80f" fill="#1976D2" stroke="none" class=""><circle cx="26.48554052593491" cy="30.240633708452243" r="2.6440000534057617" transform="matrix(2.749999737739588,0,0,2.749999737739588,12.50000524520824,12.404156932434379) " stroke-width="0" id="svg_2"/><circle cx="8.065543310663912" cy="41.372633677934665" r="2.6449999809265132" transform="matrix(2.749999737739588,0,0,2.749999737739588,12.50000524520824,12.404156932434379) " stroke-width="0" id="svg_3"/><circle cx="62.84454359295151" cy="29.34863541743662" r="2.6440000534057617" transform="matrix(2.749999737739588,0,0,2.749999737739588,12.50000524520824,12.404156932434379) " stroke-width="0" id="svg_4"/><circle cx="62.84454359295151" cy="41.372633677934665" r="2.6449999809265137" transform="matrix(2.749999737739588,0,0,2.749999737739588,12.50000524520824,12.404156932434379) " stroke-width="0" id="svg_5"/><circle cx="25.589540617487643" cy="52.50363419673349" r="2.6440000534057617" transform="matrix(2.749999737739588,0,0,2.749999737739588,12.50000524520824,12.404156932434379) " stroke-width="0" id="svg_6"/><circle cx="45.31954588176987" cy="52.50363419673349" r="2.6449999809265137" transform="matrix(2.749999737739588,0,0,2.749999737739588,12.50000524520824,12.404156932434379) " stroke-width="0" id="svg_7"/><path d="M160.61923481751796,116.10014525042598 a7.270999306583471,7.270999306583471 0 1 1 7.270999306583471,-12.592248799109573 a7.270999306583471,7.270999306583471 0 0 1 -7.270999306583471,12.592248799109573 zM52.956745085013125,116.10014525042598 a7.270999306583471,7.270999306583471 0 1 1 7.270999306583471,-12.592248799109573 a7.270999306583471,7.270999306583471 0 0 1 -7.270999306583471,12.592248799109573 z" stroke-width="0" id="svg_8"/><circle cx="45.31854261638901" cy="18.332636577104587" r="2.644000053405761" transform="matrix(2.749999737739588,0,0,2.749999737739588,12.50000524520824,12.404156932434379) " stroke-width="0" id="svg_9"/><circle cx="25.589540617487643" cy="18.332636577104587" r="2.644000053405761" transform="matrix(2.749999737739588,0,0,2.749999737739588,12.50000524520824,12.404156932434379) " stroke-width="0" id="svg_10"/><circle cx="19.613542692682955" cy="12.573636752580658" r="2.6440000534057617" transform="matrix(2.749999737739588,0,0,2.749999737739588,12.50000524520824,12.404156932434379) " stroke-width="0" id="svg_11"/><circle cx="29.308542387507174" cy="8.385635119890228" r="2.6440000534057617" transform="matrix(2.749999737739588,0,0,2.749999737739588,12.50000524520824,12.404156932434379) " stroke-width="0" id="svg_12"/><circle cx="51.319542067072604" cy="12.573636752580658" r="2.6440000534057617" transform="matrix(2.749999737739588,0,0,2.749999737739588,12.50000524520824,12.404156932434379) " stroke-width="0" id="svg_13"/><circle cx="41.624542372248385" cy="8.385635119890228" r="2.6440000534057617" transform="matrix(2.749999737739588,0,0,2.749999737739588,12.50000524520824,12.404156932434379) " stroke-width="0" id="svg_14"/><path d="M73.70824310599603,171.33113998318788 a7.270999306583471,7.270999306583471 0 0 0 -14.54474861290468,0 a7.270999306583471,7.270999306583471 0 1 0 14.54474861290468,0 z" stroke-width="0" id="svg_15"/><circle cx="29.308542387507174" cy="61.98263810298349" r="2.6440000534057617" transform="matrix(2.749999737739588,0,0,2.749999737739588,12.50000524520824,12.404156932434379) " stroke-width="0" id="svg_16"/><path d="M146.3604861773382,171.33113998318788 a7.268249306845732,7.268249306845732 0 0 1 14.541998613166943,0 a7.268249306845732,7.268249306845732 0 1 1 -14.541998613166943,0 z" stroke-width="0" id="svg_17"/><circle cx="41.624542372248385" cy="61.98263810298349" r="2.6440000534057617" transform="matrix(2.749999737739588,0,0,2.749999737739588,12.50000524520824,12.404156932434379) " stroke-width="0" id="svg_18"/><circle cx="26.48554052593491" cy="40.59563325068857" r="2.6449999809265137" transform="matrix(2.749999737739588,0,0,2.749999737739588,12.50000524520824,12.404156932434379) " stroke-width="0" id="svg_19"/><circle cx="35.45454420330307" cy="45.773634654497165" r="2.6449999809265137" transform="matrix(2.749999737739588,0,0,2.749999737739588,12.50000524520824,12.404156932434379) " stroke-width="0" id="svg_20"/><circle cx="35.45454420330307" cy="24.501635295366306" r="2.6449999809265137" transform="matrix(2.749999737739588,0,0,2.749999737739588,12.50000524520824,12.404156932434379) " stroke-width="0" id="svg_21"/><circle cx="44.422542707941744" cy="40.59563325068857" r="2.6449999809265137" transform="matrix(2.749999737739588,0,0,2.749999737739588,12.50000524520824,12.404156932434379) " stroke-width="0" id="svg_22"/><circle cx="44.423545973322604" cy="30.240633708452243" r="2.6440000534057617" transform="matrix(2.749999737739588,0,0,2.749999737739588,12.50000524520824,12.404156932434379) " stroke-width="0" id="svg_23"/><path d="M102.72624033862414,212.52888605426463 a7.27374930632121,7.27374930632121 0 0 0 14.54749861264242,0 h-14.54749861264242 z" stroke-width="0" id="svg_24"/><circle cx="8.065543310663912" cy="29.34863541743662" r="2.6440000534057613" transform="matrix(2.749999737739588,0,0,2.749999737739588,12.50000524520824,12.404156932434379) " stroke-width="0" id="svg_25"/><path d="M211.10923000241678,129.363393985544 l-5.843749442696624,-1.5619998510360866 c1.0944998956203562,-5.832749443745666 1.6939998384475907,-11.846998870182144 1.6939998384475907,-17.993248284030123 c0,-6.154499413061198 -0.5994999428272303,-12.165998839759938 -1.6939998384475907,-18.001498283243343 l5.8409994429588865,-1.5674998505115658 a7.27374930632121,7.27374930632121 0 0 0 -3.7619996412277565,-14.046998660373815 l-5.832749443745666,1.5619998510360866 a96.8412407644996,96.8412407644996 0 0 0 -18.02349828114526,-31.16024702832727 l4.289999590873757,-4.289999590873757 a7.270999306583471,7.270999306583471 0 1 0 -10.28499901914606,-10.282249019408319 l-4.289999590873757,4.289999590873757 a96.81374076712218,96.81374076712218 0 0 0 -31.157497028589532,-18.01799828166978 l1.5619998510360866,-5.835499443483405 a7.270999306583471,7.270999306583471 0 1 0 -14.046998660373815,-3.7647496409654977 l-1.5647498507738282,5.8464994424343635 a97.44899070654004,97.44899070654004 0 0 0 -17.993248284030123,-1.6939998384475907 c-6.154499413061198,0 -12.165998839759938,0.5994999428272303 -18.001498283243343,1.69674983818533 l-1.5674998505115658,-5.8464994424343635 a7.268249306845732,7.268249306845732 0 0 0 -8.904499150800786,-5.14249950957303 a7.268249306845732,7.268249306845732 0 0 0 -5.14249950957303,8.904499150800786 l1.5647498507738282,5.838249443221146 a96.88249076056567,96.88249076056567 0 0 0 -31.16024702832727,18.02074828140752 l-4.289999590873757,-4.289999590873757 a7.27374930632121,7.27374930632121 0 0 0 -10.28499901914606,10.282249019408319 l4.292749590611496,4.292749590611496 a96.7862407697448,96.7862407697448 0 0 0 -18.01799828166978,31.157497028589532 l-5.835499443483405,-1.5619998510360866 a7.2654993071079925,7.2654993071079925 0 0 0 -8.904499150800786,5.14249950957303 a7.27924930579669,7.27924930579669 0 0 0 5.1397495098352906,8.909999150276265 l5.8464994424343635,1.5647498507738282 a97.45724070575326,97.45724070575326 0 0 0 -1.6939998384475907,17.995998283767864 c0,6.148999413585719 0.5994999428272303,12.163248840022197 1.6939998384475907,17.998748283505602 l-5.843749442696624,1.5619998510360866 a7.2654993071079925,7.2654993071079925 0 0 0 -5.14249950957303,8.904499150800786 a7.276499306058949,7.276499306058949 0 0 0 8.904499150800786,5.145249509310769 l5.835499443483405,-1.5619998510360866 a96.88799076004116,96.88799076004116 0 0 0 18.02074828140752,31.154747028851794 l-4.289999590873757,4.2954995903492375 a7.254499308157032,7.254499308157032 0 0 0 0,10.27674901993284 a7.270999306583471,7.270999306583471 0 0 0 10.28499901914606,0.005499999475479192 l4.289999590873757,-4.292749590611496 a96.97599075164884,96.97599075164884 0 0 0 31.16024702832727,18.02074828140752 l-1.5619998510360866,5.829999444007926 a7.259999307632513,7.259999307632513 0 0 0 5.1397495098352906,8.904499150800786 a7.27924930579669,7.27924930579669 0 0 0 8.909999150276265,-5.13699951009755 l1.5647498507738282,-5.851999441909843 c5.835499443483405,1.0999998950958352 11.844248870444407,1.69674983818533 17.995998283767864,1.69674983818533 s12.165998839759938,-0.5967499430894931 17.995998283767864,-1.69674983818533 l1.5674998505115658,5.849249442172103 a7.268249306845732,7.268249306845732 0 1 0 14.046998660373815,-3.7647496409654977 l-1.5619998510360866,-5.835499443483405 a96.84949076371282,96.84949076371282 0 0 0 31.16024702832727,-18.01799828166978 l4.2872495911360184,4.284499591398278 a7.2654993071079925,7.2654993071079925 0 0 0 10.28499901914606,0.005499999475479192 a7.27924930579669,7.27924930579669 0 0 0 0,-10.2877490188838 l-4.292749590611496,-4.284499591398278 a96.75324077289193,96.75324077289193 0 0 0 18.02349828114526,-31.162997028065014 l5.832749443745666,1.5619998510360866 a7.268249306845732,7.268249306845732 0 1 0 3.7592496414900167,-14.049748660111554 zM188.92498211807154,146.98264230524154 a7.27374930632121,7.27374930632121 0 1 0 -7.2957493042231265,12.570248801207656 c-14.473248619723451,20.778998018360326 -37.73824640100037,34.9827466637853 -64.36649386153279,37.19099645319019 a7.270999306583471,7.270999306583471 0 0 0 -3.627249654078516,-6.26724940230852 a7.270999306583471,7.270999306583471 0 0 0 -10.903748960137467,6.2699994020462615 c-26.628247460532428,-2.2109997891426287 -49.893245241809346,-16.414748434567603 -64.36649386153279,-37.19099645319019 a7.2654993071079925,7.2654993071079925 0 1 0 -7.292999304485388,-12.570248801207656 a86.7349917283066,86.7349917283066 0 0 1 -8.337999204826431,-37.174496454763755 c0,-13.293498732233168 3.0002497138738904,-25.89399753055596 8.337999204826431,-37.17999645423923 a7.268249306845732,7.268249306845732 0 1 0 7.290249304747649,-12.572998800945395 c14.475998619461192,-20.778998018360326 37.740996400738105,-34.97999666404756 64.36649386153279,-37.185496453714705 a7.2654993071079925,7.2654993071079925 0 0 0 14.533748613953723,-0.0027499997377395877 c26.630997460270173,2.2082497894048894 49.893245241809346,16.409248435092124 64.36374386179506,37.18824645345245 a7.2654993071079925,7.2654993071079925 0 0 0 7.2957493042231265,12.567498801469918 A86.72949172883112,86.72949172883112 0 0 1 197.2602313231602,109.80539585074007 A86.65249173617443,86.65249173617443 0 0 1 188.92498211807154,146.98264230524154 z" stroke-width="0" id="svg_26"/><path d="M167.66198414586907,195.12963771358628 a7.27374930632121,7.27374930632121 0 0 1 -12.594998798847312,7.276499306058949 l12.594998798847312,-7.276499306058949 zM202.60348081358828,154.86689155334093 a7.270999306583471,7.270999306583471 0 1 1 -7.270999306583471,12.600498798322791 l7.270999306583471,-12.600498798322791 zM212.72622984820768,102.5343965441566 A7.2654993071079925,7.2654993071079925 0 0 1 219.99997915452892,109.80264585100232 a7.27924930579669,7.27924930579669 0 0 1 -7.27374930632121,7.276499306058949 v-14.54474861290468 zM195.32973150726704,52.143401349816386 a7.270999306583471,7.270999306583471 0 1 1 7.270999306583471,12.594998798847312 l-7.270999306583471,-12.594998798847312 zM155.06698534702176,17.204654681834924 a7.276499306058949,7.276499306058949 0 0 1 9.935749052453131,-2.6619997461319214 a7.276499306058949,7.276499306058949 0 0 1 2.6619997461319214,9.932999052715392 l-12.597748798585053,-7.270999306583471 zM102.72624033862414,7.0764056477400175 a7.276499306058949,7.276499306058949 0 0 1 14.54749861264242,0 h-14.54749861264242 zM52.337995144021704,24.4756539884184 a7.27374930632121,7.27374930632121 0 0 1 12.594998798847312,-7.270999306583471 l-12.594998798847312,7.270999306583471 zM17.399248476040242,64.7384001486637 a7.27374930632121,7.27374930632121 0 0 1 7.270999306583471,-12.597748798585053 l-7.270999306583471,12.597748798585053 zM7.270999441945335,117.07364515758579 A7.270999306583471,7.270999306583471 0 0 1 1.353618586108496e-7,109.80539585074007 a7.27924930579669,7.27924930579669 0 0 1 7.270999306583471,-7.276499306058949 v14.54474861290468 zM24.66749778288596,167.46739035166377 a7.270999306583471,7.270999306583471 0 0 1 -9.930249052977652,-2.6674997456074 a7.276499306058949,7.276499306058949 0 0 1 2.6619997461319214,-9.932999052715392 l7.268249306845732,12.600498798322791 zM52.33524514428396,195.12963771358628 A7.27924930579669,7.27924930579669 0 0 0 54.99999489015363,205.06538676603938 a7.268249306845732,7.268249306845732 0 0 0 9.930249052977652,-2.656499746656442 l-12.594998798847312,-7.27924930579669 z" stroke-width="0" id="svg_27"/></g></g></svg>